<?xml version="1.0" standalone="no"?>
<!DOCTYPE svg PUBLIC "-//W3C//DTD SVG 1.1//EN" "http://www.w3.org/Graphics/SVG/1.1/DTD/svg11.dtd" >
<!--
2013-9-30: Created.
-->
<svg>
<metadata>
Created by iconfont
</metadata>
<defs>

<font id="iconfont" horiz-adv-x="1024" >
  <font-face
    font-family="iconfont"
    font-weight="500"
    font-stretch="normal"
    units-per-em="1024"
    ascent="896"
    descent="-128"
  />
    <missing-glyph />
    
    <glyph glyph-name="x" unicode="x" horiz-adv-x="1001"
d="M281 543q-27 -1 -53 -1h-83q-18 0 -36.5 -6t-32.5 -18.5t-23 -32t-9 -45.5v-76h912v41q0 16 -0.5 30t-0.5 18q0 13 -5 29t-17 29.5t-31.5 22.5t-49.5 9h-133v-97h-438v97zM955 310v-52q0 -23 0.5 -52t0.5 -58t-10.5 -47.5t-26 -30t-33 -16t-31.5 -4.5q-14 -1 -29.5 -0.5
t-29.5 0.5h-32l-45 128h-439l-44 -128h-29h-34q-20 0 -45 1q-25 0 -41 9.5t-25.5 23t-13.5 29.5t-4 30v167h911zM163 247q-12 0 -21 -8.5t-9 -21.5t9 -21.5t21 -8.5q13 0 22 8.5t9 21.5t-9 21.5t-22 8.5zM316 123q-8 -26 -14 -48q-5 -19 -10.5 -37t-7.5 -25t-3 -15t1 -14.5
t9.5 -10.5t21.5 -4h37h67h81h80h64h36q23 0 34 12t2 38q-5 13 -9.5 30.5t-9.5 34.5q-5 19 -11 39h-368zM336 498v228q0 11 2.5 23t10 21.5t20.5 15.5t34 6h188q31 0 51.5 -14.5t20.5 -52.5v-227h-327z" />
    

    
    <glyph glyph-name="leave" unicode="&#58905;" d="M226.871 45.434999999999945c0-59.382 47.87-109.989 106.91-109.989h356.406c59.055 0 106.909 50.607 106.909 109.989l71.28 575.97h-712.796l71.292-575.97zM624.25 509.689h69.953v-462.527h-69.953v462.527zM469.726 509.689h84.57v-462.527h-84.57v462.527zM329.82 509.689h69.953v-462.527h-69.953v462.527zM850.572 761.312h-231.664c0 0-15.957 69.953-35.647 69.953h-142.555c-19.675 0-35.645-69.953-35.645-69.953h-231.638c-29.534 0-53.462-25.813-53.462-55.498 0-29.698 0-56.218 0-56.218h784.103c0 0 0 26.521 0 56.218 0 29.684-23.972 55.498-53.492 55.498z"  horiz-adv-x="1024" />

    
    <glyph glyph-name="get" unicode="&#58930;" d="M961.081 168.03099999999995q0-22.404-7.617-42.119t-21.508-35.398-32.261-26.436-39.879-14.339l0.896-0.896h-613.856q-4.481-0.896-14.339-0.896-34.95 0-65.419 13.443t-53.32 36.294-35.845 53.32-12.994 65.419 12.994 65.419 35.845 53.32 53.32 36.294 65.419 13.443h0.896q-0.896 7.169-0.896 13.443v14.338q0 63.627 24.196 120.082t66.314 98.127 98.127 65.866 119.635 24.196 120.082-24.196 98.576-65.866 66.314-98.127 24.196-120.082q0-33.158-7.169-64.97t-19.715-60.489q4.481 0.896 9.41 1.344t9.41 0.449q24.196 0 46.151-9.41t38.086-25.989 25.54-38.534 9.41-47.048zM647.431 274.672q17.923 0 23.3 4.033t-7.169 19.267q-12.546 16.13-27.781 42.119t-31.813 52.873-33.605 50.184-33.158 34.053q-16.13 11.65-23.748 12.546t-21.955-10.754q-16.13-13.443-31.365-34.053t-30.917-43.911-31.365-45.704-31.813-39.43q-16.13-16.13-11.65-28.676t22.404-12.546h14.338q8.066 0 17.474-0.449t18.371-0.449h15.235q12.546-0.896 16.13-8.513t3.585-21.059q0-15.235-0.449-26.884t-0.449-22.404-0.449-22.404-0.449-26.884q0-6.274 1.344-13.443t4.929-13.443 10.754-10.305 18.819-4.033h20.611q8.066 0 24.196-0.896 21.508 0 24.644 10.754t3.136 34.053q0 20.611 0.449 37.189t0.449 45.255q0 20.611 4.033 31.813t17.474 11.202q9.858 0 28.228 0.449t28.228 0.449z"  horiz-adv-x="1024" />

    
    <glyph glyph-name="update" unicode="&#58967;" d="M1047.20375001 381.24187500000005q8.2753125 0 15.17156249-5.9765625t10.5740625-15.6309375 2.29875-22.066875-10.5740625-26.205q-18.3890625-27.5840625-45.51375-69.879375t-68.5003125-92.86687499q-11.953125-14.71124999-22.9865625-20.22843751t-24.8259375-3.6778125q-14.71124999 1.839375-22.9865625 12.8728125t-22.066875 24.82593749q-20.2284375 20.2284375-39.07781249 44.59406251t-34.48031251 46.8928125-26.664375 39.9965625-14.71125 23.90625q-9.195 13.7925-10.57406249 25.745625t1.83937499 20.2284375 9.195 12.8728125 12.4125 4.5975h93.78562501q0 67.12125001-27.12468751 132.86343751t-77.69531249 116.31281249q-46.8928125 46.8928125-107.57812501 69.42t-124.12875 21.6075-123.6684375-24.8259375-107.11875-70.7990625-73.0978125-109.4175-28.96312499-128.72625 18.84937499-128.2659375 69.42-107.11875q42.2953125-38.6175 84.5915625-61.1446875t82.7521875-32.6409375 77.2359375-9.195 67.5815625 8.2753125 54.70875 19.7690625 37.69875 25.2853125q22.066875 12.8728125 46.8928125 13.7925t43.215-18.3890625q22.9865625-22.9865625 16.550625-47.353125t-28.50375-46.4334375q-10.11374999-10.11374999-22.9865625-15.6309375-60.6853125-43.215-131.484375-57.0075t-142.5178125-1.83937499-139.7596875 47.35312499-122.28937499 89.6484375q-66.2015625 66.2015625-99.30281251 149.4140625t-33.10125 170.10187501 33.560625 170.56218749 99.7621875 149.8734375 149.4140625 99.7621875 170.101875 33.560625 170.5621875-33.560625 149.8734375-99.7621875q36.7790625-36.7790625 62.064375-78.1546875t40.456875-84.13125 21.6075-84.5915625 6.43593751-78.615h83.67187499zM580.113125 383.0803125q0-23.90625001-16.550625-40.91625t-40.456875-17.01-40.91625 17.01-17.01 40.91625v172.86093751q0 23.90625001 17.01 40.45687499t40.91625 16.55062501 40.456875-16.55062501 16.550625-40.45687499v-172.86093751zM523.105625 268.14656249999996q23.90625001 0 40.456875-17.01t16.550625-40.91625-16.550625-40.456875-40.456875-16.550625-40.91625 16.550625-17.01 40.456875 17.01 40.91625 40.91625 17.01z"  horiz-adv-x="1133" />

    
    <glyph glyph-name="icitem" unicode="&#59051;" d="M130.64-34.053999999999974v838.852c0 17.68-14.344 32.042-32.023 32.042s-32.024-14.362-32.024-32.042v-838.852c0-17.68 14.345-32.005 32.023-32.005s32.024 14.325 32.024 32.005zM685.153 207.55700000000002c0 10.607-8.602 19.208-19.211 19.208h-465.423c-10.625 0-19.229-8.602-19.229-19.208v-126.566c0-10.608 8.603-19.21 19.229-19.21h465.422c10.609 0 19.211 8.602 19.211 19.21v126.566zM955.432 450.988c0 10.608-8.583 19.211-19.229 19.211h-735.683c-10.625 0-19.229-8.604-19.229-19.211v-126.564c0-10.609 8.603-19.212 19.229-19.212h735.683c10.645 0 19.229 8.603 19.229 19.212v126.564zM181.291 694.3820000000001v-126.545c0-10.626 8.603-19.229 19.229-19.229h611.197c10.607 0 19.21 8.603 19.21 19.229v126.545c0 10.609-8.603 19.247-19.21 19.247h-611.198c-10.625 0-19.228-8.639-19.228-19.247z"  horiz-adv-x="1024" />

    
    <glyph glyph-name="definition" unicode="&#58976;" d="M511.880785-63.531709999999975c-246.986207 0-447.910333 200.924125-447.910333 447.888843 0 246.965741 200.924125 447.931822 447.910333 447.931822s447.910333-200.966081 447.910333-447.931822C959.791118 137.39241600000003 758.866992-63.531709999999975 511.880785-63.531709999999975zM511.880785 773.248282c-214.449163 0-388.911614-174.420495-388.911614-388.891148 0-214.427674 174.46245-388.890124 388.911614-388.890124 214.44814 0 388.912637 174.46245 388.912637 388.890124C900.792399 598.826763 726.328925 773.248282 511.880785 773.248282zM511.880785 575.911868l54.376445-115.170043 126.332267-16.121166-92.738148-87.314625 23.717168-125.128859-111.687732 61.235666-111.687732-61.235666 23.717168 125.128859-92.738148 87.314625 126.332267 16.121166L511.880785 575.911868M511.880785 634.9105870000001L511.880785 634.9105870000001c-22.852474 0-43.61638-13.166881-53.364395-33.803897l-40.556695-85.922928-94.257757-12.026918c-22.641673-2.912329-41.590234-18.611893-48.659233-40.302915-7.068999-21.734-0.949628-45.579081 15.678074-61.192687l69.169359-65.161069-17.682731-93.350085c-4.241604-22.408359 4.832052-45.283346 23.295566-58.70196 10.29753-7.513114 22.472827-11.311627 34.69008-11.311627 9.749038 0 19.497053 2.405793 28.359908 7.30129l83.327824 45.662992 83.327824-45.662992c8.862855-4.895497 18.611893-7.30129 28.359908-7.30129 12.217253 0 24.39255 3.798513 34.689057 11.311627 18.485003 13.418614 27.558659 36.293601 23.297612 58.70196l-17.682731 93.350085 69.168336 65.119113c16.627702 15.656585 22.747073 39.501666 15.699564 61.234643-7.090489 21.691021-26.038026 37.390585-48.679699 40.302915l-94.257757 12.026918-40.555671 85.922928C555.496142 621.743706 534.711769 634.9105870000001 511.880785 634.9105870000001L511.880785 634.9105870000001z"  horiz-adv-x="1024" />

    
    <glyph glyph-name="icbackout" unicode="&#59234;" d="M174.5 100.40800000000002v562.5h562.5v-56.25h112.5v140.625c0 15.518-12.608 28.125-28.125 28.125l-730.84-0.357c-15.518 0-28.535-12.25-28.535-27.768v-731.25c0-15.518 12.607-28.125 28.125-28.125h253.125v112.5h-168.75zM953.559 37.14099999999996l-40.787-40.785c-11.256-11.262-29.521-11.262-40.781 0l-163.118 163.115-163.119-163.117c-11.262-11.26-29.521-11.26-40.781 0l-40.775 40.787c-11.262 11.257-11.262 29.521-0.002 40.776l163.118 163.118-163.117 163.118c-11.262 11.262-11.262 29.523 0 40.785l40.775 40.774c11.264 11.26 29.519 11.26 40.781-0.002l163.118-163.117 163.123 163.117c11.257 11.262 29.525 11.26 40.781 0l40.785-40.781c11.252-11.257 11.252-29.521-0.004-40.778l-163.121-163.118 163.121-163.119c11.257-11.254 11.254-29.519 0.002-40.773v0z"  horiz-adv-x="1024" />

    
    <glyph glyph-name="shounawenjian" unicode="&#59140;" d="M841.142857 652.214857 841.142857 749.714286l-36.571429 0L804.571429 822.857143l-36.571429 0L768 896 256 896l0-73.142857-36.571429 0 0-73.142857-36.571429 0 0-97.499429L0 347.5712 0-18.285714c0 0 0-36.571429 36.571429-36.571429l950.857143 0c0 0 36.571429 0 36.571429 36.571429L1024 347.5712 841.142857 652.214857zM841.142857 510.070857 916.821943 384 841.142857 384 841.142857 510.070857zM292.571429 859.428571l438.857143 0 0-36.571429L292.571429 822.857143 292.571429 859.428571zM256 786.285714l512 0 0-36.571429L256 749.714286 256 786.285714zM219.428571 713.142857l585.142857 0 0-329.142857-109.714286 0c-20.214857 0-36.571429-16.356571-36.571429-36.571429l0-109.714286L365.714286 237.714286l0 109.856914c0 20.214857-16.356571 36.571429-36.571429 36.571429l-109.714286 0L219.428571 713.142857zM182.857143 510.070857l0-125.928229L107.285943 384.142629 182.857143 510.070857zM950.857143 18.285714 73.142857 18.285714 73.142857 310.999771l219.428571 0L292.571429 201.142857c0-20.214857 16.356571-36.571429 36.571429-36.571429l365.714286 0c20.214857 0 36.571429 16.356571 36.571429 36.571429l0 109.714286 219.428571 0L950.857143 18.285714z"  horiz-adv-x="1024" />

    
    <glyph glyph-name="interest" unicode="&#59754;" d="M512.0896 442.67306667c188.64213333 0 341.63626667 88.32 341.63626667 197.24266666s-152.992 197.24266667-341.63626667 197.24266667c-188.64213333 0.18026667-341.63626667-88.13973333-341.63626667-197.06346667 0-109.09973333 152.992-197.42186667 341.63626667-197.42186666v0zM512.2688 783.5882666699999c155.67893333 0 298.99733333-72.912 298.99733333-134.54186667s-143.4976-135.97226667-298.99733333-135.97226667c-155.67893333 0-298.99733333 74.3456-298.99733333 135.97226667-0.18026667 61.62666667 143.31946667 134.54186667 298.99733333 134.54186667v0zM512.0896 360.44373333c-162.8448 0-298.8192 85.81226667-333.21493333 179.32693334-5.37386667-13.9744-8.5984-28.48426667-8.5984-43.35253334 0-108.9216 152.992-197.24266667 341.63626666-197.24266666 188.64213333 0 341.63626667 88.32 341.63626667 197.24266666 0 14.86933333-3.04533333 29.3792-8.5984 43.35253334-33.86026667-93.51573333-170.01173333-179.32693333-332.85653333-179.32693334v0zM512.0896 216.94506666999996c-155.5008 0-286.45866667 96.37973333-327.84 191.32906666-8.95573333-17.55733333-13.79306667-36.0096-13.79306667-55.1776 0-108.9216 152.992-197.24266667 341.63626667-197.24266666 188.64213333 0 341.63626667 88.32 341.63626667 197.24266666 0 19.168-5.01653333 37.80053333-13.79306667 55.1776-41.3824-94.94933333-172.34133333-191.32906667-327.84-191.32906666v0zM512.0896 101.93280000000004c-162.8448 0-298.8192 85.81226667-333.21493333 179.32693333-5.37386667-13.9744-8.5984-28.48426667-8.5984-43.35253333 0-108.9216 152.992-197.42186667 341.63626666-197.42186667 188.64213333 0 341.63626667 88.32 341.63626667 197.42186667 0 14.86933333-3.04533333 29.3792-8.5984 43.35253333-33.86026667-93.51573333-170.01173333-179.32693333-332.85653333-179.32693333v0zM512.0896-13.08053332999998c-162.8448 0-298.8192 85.81226667-333.21493333 179.32693333-5.37386667-13.9744-8.5984-28.48426667-8.5984-43.35253333 0-108.9216 152.992-197.24266667 341.63626666-197.24266667 188.64213333 0 341.63626667 88.32 341.63626667 197.24266667 0 14.86933333-3.04533333 29.3792-8.5984 43.35253333-33.86026667-93.51573333-170.01173333-179.32693333-332.85653333-179.32693333v0zM512.0896-13.08053332999998z"  horiz-adv-x="1024" />

    
    <glyph glyph-name="fall" unicode="&#58984;" d="M526.50894222 59.42856057999995l392.90531081 621.37837038c7.57304889 11.96153363 8.03908267 27.10763141 1.2039206 39.45752651-6.83516208 12.42756741-19.88410785 20.11712475-34.02167941 20.11712474h-785.61644089c-14.1351443 0-27.1853037-7.68955733-34.02167941-20.11712474-3.2234003-5.82542222-4.81568237-12.27222282-4.81568237-18.7190234 0-7.22352355 2.0194797-14.44704711 5.98198045-20.73850311l392.74996622-621.37837038c7.10701511-11.26248297 19.49574637-18.09643141 32.81654519-18.09764504s25.70953008 6.83516208 32.81654518 18.09764504z"  horiz-adv-x="1024" />

    
    <glyph glyph-name="shut" unicode="&#58971;" d="M567.67550198 384l387.07729952 387.07729952c15.90728628 15.90728628 15.90728628 41.0938229 0 55.67550198-15.90728628 15.90728628-41.0938229 15.90728628-55.67550198 0L512 439.67550198 124.92270048 826.7528015c-15.90728628 15.90728628-41.0938229 15.90728628-55.67550198 0-15.90728628-15.90728628-15.90728628-41.0938229 0-55.67550198L456.32449802 384 69.2471985-3.077299519999997c-15.90728628-15.90728628-15.90728628-41.0938229 0-55.67550198 7.95364315-7.95364315 18.55850066-11.93046471 27.83775099-11.93046472s19.88410785 3.97682157 27.83775099 11.93046472L512 328.32449801999996l387.07729952-387.07729952c7.95364315-7.95364315 18.55850066-11.93046471 27.83775099-11.93046472s19.88410785 3.97682157 27.83775099 11.93046472c15.90728628 15.90728628 15.90728628 41.0938229 0 55.67550198L567.67550198 384z"  horiz-adv-x="1024" />

    
    <glyph glyph-name="request" unicode="&#58973;" d="M664.25000029 483.28125L664.25000029 751.0499997100001 537.18125029 751.0499997100001 486.83750029 751.0499997100001 359.74999971 751.0499997100001 359.74999971 483.28125 252.9125 382.57500029000005 252.9125 305.94374971 486.83750029 305.94374971 537.18125029 305.94374971 771.0875 305.94374971 771.0875 382.57500029000005ZM268.6625 834l486.65625029 0 0-55.63125-486.65625029 0 0 55.63125ZM512-64.23750028999996L437.99374971 276.65625029 585.98749971 276.65625029Z"  horiz-adv-x="1024" />

    
    <glyph glyph-name="iccancel" unicode="&#58991;" d="M511.104 896C228.821333 896 0 667.178667 0 384.896c0-282.282667 228.821333-511.104 511.104-511.104 282.282667 0 511.104 228.842667 511.104 511.104C1022.208 667.178667 793.386667 896 511.104 896zM511.104-2.495999999999981c-213.973333 0-387.434667 173.44-387.434667 387.413333 0 213.952 173.44 387.413333 387.434667 387.413333 213.952 0 387.392-173.44 387.392-387.413333C898.496 170.94399999999996 725.056-2.495999999999981 511.104-2.495999999999981zM236.437333 432.085333l549.333333 0 0-96.874667-549.333333 0 0 96.874667Z"  horiz-adv-x="1024" />

    
    <glyph glyph-name="icsplit" unicode="&#59108;" d="M468.05694445 354l295.59375-267.65625001c-72.9375-80.53125001-178.40625001-131.0625-295.59375-131.06249998C247.74444445-44.71875001000001 69.24444445 133.78124999 69.24444445 354S247.74444445 752.8125 468.05694445 752.8125L468.05694445 354zM866.02569445 137.625c64.125 70.78125001 103.21875001 164.625 103.21875 267.65625001 0 220.21875001-178.5 398.8125-398.8125 398.81249998l0-398.81249998L866.02569445 137.625z"  horiz-adv-x="1024" />

    
    <glyph glyph-name="note" unicode="&#59114;" d="M832.2734375 700.58203125l-2.19726563 1.93359375c-81.29882813 81.12304688-193.359375 131.484375-317.90039062 131.484375-124.36523438 0-236.86523438-50.36132813-318.1640625-131.484375l0.52734375-0.26367188C112.88867187 620.77734375 62 508.453125 62 384.3515625c0-82.08984375 26.63085938-156.62109375 60.55664063-225.26367188C168.34765625 66.71484375 287.87890625-9.22265625 427.71289062-9.22265625l418.97460938 0 0.79101563 0c19.16015625 0 34.62890625 15.02929688 34.62890625 34.62890625L882.10742188 128.58984375c24.52148438 35.41992188 44.47265625 74.44335938 57.74414062 116.19140625 14.23828125 43.9453125 22.1484375 90.87890625 22.1484375 139.5703125C962 507.48632813 912.078125 619.01953125 832.2734375 700.58203125zM737 215.25L287 215.25c-15.55664063 0-28.125 12.56835938-28.125 28.125s12.56835938 28.125 28.125 28.125l450 0c15.55664063 0 28.125-12.56835938 28.125-28.125S752.55664063 215.25 737 215.25zM737 384L287 384c-15.55664063 0-28.125 12.56835938-28.125 28.125s12.56835938 28.125 28.125 28.125l450 0c15.55664063 0 28.125-12.56835938 28.125-28.125S752.55664063 384 737 384zM737 552.75L287 552.75c-15.55664063 0-28.125 12.56835938-28.125 28.125s12.56835938 28.125 28.125 28.125l450 0c15.55664063 0 28.125-12.56835938 28.125-28.125S752.55664063 552.75 737 552.75z"  horiz-adv-x="1024" />

    
    <glyph glyph-name="bgefficiency" unicode="&#59282;" d="M813.8375 639.9375L767.9375 639.9375 767.9375 685.8562497099999C767.9375 767.5500002900001 701.50625 834 619.79374971 834L210.14375029 834C128.44999971 834 62 767.5500002900001 62 685.8562497099999L62 276.18749971c0-81.65625029 66.44999971-148.12499971 148.14375029-148.12499971l45.9 0L256.04375029 82.12499971c0-81.65625029 66.44999971-148.12499971 148.1437503-148.12499971L813.87500029-66c81.65625029 0 148.12499971 66.46875029 148.08750029 148.12499971L961.96249971 491.79374971C961.96249971 573.4875002900001 895.49375029 639.9375 813.8375 639.9375zM99.55625029 276.18749971L99.55625029 685.8562497099999c0 60.975 49.6125 110.5875 110.5875 110.5875l409.65000029 0c60.975 0 110.56875029-49.63124971 110.5687503-110.5875L730.3625 276.18749971c0-60.95625029-49.59375029-110.54999971-110.56875029-110.54999971L210.14375029 165.63750000000005C149.16875029 165.63750000000005 99.55625029 215.21249970999997 99.55625029 276.18749971zM924.40625029 82.12499971c0-60.975-49.6125-110.56875029-110.56875029-110.56875029L404.16875-28.44374971000002c-60.975 0-110.5875 49.6125-110.5875 110.56875029L293.58125 128.0625l326.21249971 0c81.71250029 0 148.14375029 66.46875029 148.14375029 148.12499971L767.9375 602.40000029l45.88125029 0c60.975 0 110.56875029-49.6125 110.56875029-110.5875L924.38749971 82.12499971z"  horiz-adv-x="1024" />

    
    <glyph glyph-name="refresh" unicode="&#58891;" d="M921.6 486.4L648.53333333 486.4C629.67466667 486.4 614.4 501.67466667 614.4 520.53333333 614.4 539.392 629.67466667 554.66666667 648.53333333 554.66666667L846.2336 554.66666667C784.05973333 676.16426667 657.85173333 759.46666667 512 759.46666667 304.64 759.46666667 136.53333333 591.36 136.53333333 384 136.53333333 176.64 304.64 8.533333330000005 512 8.533333330000005 696.0128 8.533333330000005 848.93013333 140.97066667 881.06666667 315.68213333000006 881.06666667 315.6992 881.06666667 315.71626667 881.06666667 315.73333333000005 881.06666667 334.592 896.34133333 349.86666667 915.2 349.86666667 934.05866667 349.86666667 949.33333333 334.592 949.33333333 315.73333333000005 949.33333333 312.01279999999997 948.5824 308.49706667 947.49013333 305.13493332999997L948.6848 304.84479999999996C911.37706667 97.55306667000002 730.0608-59.73333333000005 512-59.73333333000005 266.92266667-59.73333333000005 68.26666667 138.93973332999997 68.26666667 384 68.26666667 629.0602666699999 266.92266667 827.73333333 512 827.73333333 670.13973333 827.73333333 808.87466667 744.96 887.46666667 620.4416L887.46666667 793.6C887.46666667 812.45866667 902.74133333 827.73333333 921.6 827.73333333 940.45866667 827.73333333 955.73333333 812.45866667 955.73333333 793.6L955.73333333 520.53333333C955.73333333 501.67466667 940.45866667 486.4 921.6 486.4Z"  horiz-adv-x="1024" />

    
    <glyph glyph-name="verification" unicode="&#58945;" d="M72.9088 740.07893333l0-600.74666666 699.05066667 0L771.95946667 740.07893333 72.9088 740.07893333zM728.2688 185.20746667000003l-611.66933333 0L116.59946667 696.38826667l611.66933333 0L728.2688 185.20746667000003zM171.2128 574.0544l76.45866667 0 0-61.16693333-76.45866667 0 0 61.16693333ZM271.70133333 554.3936l388.84693334 0 0-21.84533333-388.84693334 0 0 21.84533333ZM271.70133333 432.05973333l388.84693334 0 0-21.84533333-388.84693334 0 0 21.84533333ZM271.70133333 305.3568l388.84693334 0 0-21.84533333-388.84693334 0 0 21.84533333ZM171.2128 451.72053333l76.45866667 0 0-61.16693333-76.45866667 0 0 61.16693333ZM171.2128 325.0176l76.45866667 0 0-61.16693333-76.45866667 0 0 61.16693333ZM359.08266667 386.18453333l-67.72053334-52.4288c0 0 172.57813333-146.36373333 270.88213334-283.98933333 0 0 61.16693333 238.11413333 391.03146666 537.3952L937.984 624.29866667c0 0-192.23893333-89.56586667-419.4304-373.5552C518.5536 250.74346666999998 461.75573333 309.72586666999996 359.08266667 386.18453333z"  horiz-adv-x="1024" />

    
    <glyph glyph-name="reset" unicode="&#58893;" d="M621.13607246 440.31151377c32.87298867 0 59.50320292-29.04858633 59.50320293-64.90235918l0-151.40134336c0-35.82565223-26.63021426-64.87423857-59.50320293-64.87423857l-218.1596625 0c-32.84486807 0-59.50320292 29.04858633-59.50320293 64.87423857l0 151.40134336c0 35.82565223 26.63021426 64.90235918 59.50320294 64.90235918L455.75878731 440.31151377l0 0 112.48242451 0 0 0L621.13607246 440.31151377zM511.57819092 383.78909502c-31.04514932 0-56.24121269-24.07123916-56.2412127-53.79471914 0-19.85314834 15.4100918-35.03827529 32.16997355-44.37431631l0-69.90782696 48.17059804 0 0 69.90782697c16.75988086 9.33604102 32.16997354 24.52116885 32.16997353 44.3743163C567.81940362 359.71785674 542.62334023 383.78909502 511.57819092 383.78909502zM512 552.65333526c-52.86673916 0-56.10060967-44.45867812-56.24121269-56.2412127l0-56.07248907-56.60678057 0 0 50.64521133c0 0 0.0281206 118.1065456 112.62302754 118.10654561 112.62302754 0 112.62302754-118.1065456 112.62302754-118.10654561l0-50.64521133L568.24121269 440.33963438l0 56.07248907C568.12873028 507.99781289 564.86673916 552.65333526 512 552.65333526zM512-66c-248.50179668 0-449.92969805 201.42790224-449.92969805 449.92969805s201.42790224 449.92969805 449.92969805 449.92969804c80.08748614 0 155.2257457-21.06233437 220.35306973-57.75972539l41.84346181 57.90032841L849.10982627 637.0713955l-196.39431299 28.8236215 46.3708793 64.17122343C643.40759287 760.2396501000001 579.77066094 777.5900636700001 512 777.5900636700001c-217.42852675 0-393.68848623-176.25995947-393.68848623-393.68848623s176.25995947-393.68848623 393.68848623-393.68848622 393.68848623 176.25995947 393.68848623 393.68848622c0 53.09170401-10.65770947 103.6525544-29.69536026 149.88283066l51.99500039 21.39978164C949.75347588 502.3736918 961.92969805 444.5858458 961.92969805 383.90157744 961.92969805 135.42790223999998 760.50179668-66 512-66z"  horiz-adv-x="1024" />

    
    <glyph glyph-name="bgsystem" unicode="&#59007;" d="M916.16 404.16l-60.48 0c-7.68 44.16-48 79.68-96 79.68-48 0-88.32-31.68-96-79.68L96.32 404.16c-12.48 0-20.16-7.68-20.16-20.16 0-12.48 7.68-20.16 20.16-20.16l568.32 0c7.68-44.16 48-79.68 96-79.68 48 0 88.32 31.68 96 79.68l60.48 0c12.48 0 20.16 7.68 20.16 20.16C936.32 396.48 923.84 404.16 916.16 404.16zM759.68 324.48c-31.68 0-60.48 27.84-60.48 59.52 0 31.68 27.84 60.48 60.48 60.48 31.68 0 60.48-27.84 60.48-60.48C816.32 352.32000000000005 792.32 324.48 759.68 324.48zM96.32 655.6800000000001l99.84 0c7.68-44.16 48-79.68 96-79.68s88.32 31.68 96 79.68l528 0c12.48 0 20.16 7.68 20.16 20.16 0 12.48-7.68 20.16-20.16 20.16L384.32 696c-7.68 44.16-48 79.68-96 79.68s-88.32-31.68-96-79.68l-96 0c-12.48 0-20.16-7.68-20.16-20.16C76.16 668.16 83.84 655.6800000000001 96.32 655.6800000000001zM292.16 736.3199999999999c31.68 0 60.48-27.84 60.48-59.52s-27.84-60.48-60.48-60.48-60.48 27.84-60.48 60.48S255.68 736.3199999999999 292.16 736.3199999999999zM916.16 112.32000000000005L543.68 112.32000000000005c-7.68 44.16-48 79.68-96 79.68s-88.32-31.68-96-79.68L96.32 112.32000000000005c-12.48 0-20.16-7.68-20.16-20.16 0-11.52 7.68-20.16 20.16-20.16l256.32 0c7.68-44.16 48-79.68 96-79.68s88.32 31.68 96 79.68l371.52 0c12.48 0 20.16 7.68 20.16 20.16C936.32 99.84000000000003 923.84 112.32000000000005 916.16 112.32000000000005zM447.68 31.67999999999995c-31.68 0-59.52 27.84-59.52 59.52 0 31.68 27.84 60.48 59.52 60.48 31.68 0 60.48-27.84 60.48-60.48C504.32 59.51999999999998 480.32 31.67999999999995 447.68 31.67999999999995z"  horiz-adv-x="1024" />

    
    <glyph glyph-name="unit" unicode="&#58957;" d="M929.792 474.112L887.808 486.4c-8.192 33.792-21.504 64.512-37.888 94.208l21.504 38.912c8.192 13.312 13.312 29.696 0 43.008l-84.992 84.992c-4.096 4.096-13.312 8.192-17.408 8.192-8.192 0-17.408-4.096-25.6-8.192l-37.888-25.6c-33.792 25.6-64.512 37.888-98.304 47.104l-13.312 43.008c-4.096 17.408-13.312 29.696-29.696 29.696L439.296 841.728c-12.288 0-25.6-13.312-29.696-29.696l-8.192-43.008c-33.792-8.192-68.608-21.504-98.304-38.912l-38.912 21.504c-4.096 4.096-17.408 8.192-21.504 8.192-8.192 0-13.312 0-17.408-8.192l-84.992-84.992c-13.312-13.312-8.192-29.696 0-43.008l21.504-38.912c-21.504-29.696-33.792-64.512-43.008-98.304l-43.008-13.312c-17.408-4.096-29.696-13.312-29.696-29.696l0-123.904c0-17.408 17.408-25.6 29.696-29.696l43.008-13.312c8.192-29.696 21.504-64.512 38.912-94.208l-21.504-38.912c-8.192-12.288-13.312-29.696 0-43.008l84.992-84.992c4.096-4.096 13.312-8.192 17.408-8.192 8.192 0 17.408 4.096 25.6 8.192l38.912 25.6c29.696-17.408 59.392-29.696 94.208-38.912l13.312-43.008c4.096-17.408 13.312-29.696 29.696-29.696L563.2-70.65599999999995c17.408 0 25.6 17.408 29.696 29.696l13.312 43.008c33.792 8.192 63.488 21.504 94.208 38.912l38.912-25.6c8.192-4.096 17.408-8.192 25.6-8.192s13.312 0 17.408 8.192l84.992 84.992c12.288 13.312 8.192 29.696 0 43.008l-21.504 38.912c17.408 29.696 29.696 59.392 38.912 94.208l43.008 13.312c17.408 4.096 29.696 13.312 29.696 29.696L957.44 443.392C960.512 460.8 947.2 474.112 929.792 474.112zM921.6 332.79999999999995C917.504 332.79999999999995 917.504 332.79999999999995 921.6 332.79999999999995l-43.008-13.312c-12.288-4.096-25.6-17.408-29.696-29.696-8.192-29.696-21.504-59.392-33.792-84.992-8.192-13.312-8.192-29.696 0-43.008l21.504-38.912-72.704-72.704 0 0-38.912 21.504C716.8 76.79999999999995 712.704 76.79999999999995 704.512 76.79999999999995s-13.312 0-21.504-4.096c-25.6-17.408-55.296-25.6-84.992-33.792-13.312-4.096-25.6-17.408-29.696-29.696l-13.312-43.008 0 0-102.4 0-13.312 43.008c-4.096 13.312-17.408 25.6-29.696 29.696-29.696 8.192-59.392 21.504-84.992 33.792C315.392 76.79999999999995 311.296 76.79999999999995 303.104 76.79999999999995s-13.312 0-21.504-4.096l-38.912-21.504 0 0L171.008 128l21.504 38.912c8.192 13.312 8.192 29.696 0 43.008-17.408 25.6-25.6 55.296-33.792 84.992-4.096 13.312-17.408 25.6-29.696 29.696l-43.008 13.312 0 0 0 102.4 43.008 13.312c12.288 4.096 25.6 17.408 29.696 29.696 8.192 29.696 21.504 59.392 33.792 84.992 8.192 13.312 8.192 29.696 0 43.008L171.008 640l0 0 72.704 72.704 38.912-21.504c8.192-4.096 17.408-4.096 21.504-4.096 8.192 0 13.312 0 21.504 4.096 25.6 17.408 55.296 25.6 84.992 33.792 13.312 4.096 25.6 17.408 29.696 29.696l13.312 43.008 102.4 0 0 0 13.312-43.008c4.096-13.312 17.408-25.6 29.696-29.696 29.696-8.192 59.392-21.504 84.992-33.792 8.192-4.096 13.312-4.096 21.504-4.096s12.288 0 21.504 4.096l38.912 21.504 68.608-72.704 0 0-21.504-33.792c-8.192-13.312-8.192-29.696 0-43.008 17.408-25.6 25.6-55.296 33.792-84.992 4.096-13.312 17.408-25.6 29.696-29.696l43.008-13.312 0-102.4L921.6 332.79999999999995zM503.808 635.904c-136.192 0-251.904-110.592-251.904-251.904 0-136.192 110.592-251.904 251.904-251.904S755.712 243.712 755.712 384C750.592 520.192 640 635.904 503.808 635.904zM503.808 592.896c72.704 0 132.096-33.792 171.008-90.112L563.2 443.392c-17.408 17.408-37.888 25.6-59.392 25.6-21.504 0-47.104-8.192-59.392-25.6l-110.592 59.392C370.688 555.008 431.104 592.896 503.808 592.896zM482.304 175.10400000000004C375.808 183.29600000000005 294.912 273.408 294.912 384c0 29.696 4.096 55.296 17.408 80.896l110.592-59.392c0-8.192-4.096-13.312-4.096-21.504 0-37.888 25.6-72.704 64.512-80.896C482.304 303.10400000000004 482.304 175.10400000000004 482.304 175.10400000000004zM460.8 384c0 21.504 17.408 43.008 43.008 43.008 25.6 0 43.008-17.408 43.008-43.008 0-21.504-17.408-43.008-43.008-43.008C478.208 340.99199999999996 460.8 362.496 460.8 384zM712.704 384c0-106.496-80.896-196.608-187.392-208.896L525.312 303.10400000000004c33.792 8.192 64.512 43.008 64.512 80.896 0 8.192 0 13.312-4.096 21.504l110.592 59.392C704.512 439.296 712.704 413.696 712.704 384z"  horiz-adv-x="1024" />

    
    <glyph glyph-name="collect" unicode="&#59174;" d="M932 403.99999969L140 403.99999969l166.00000031 166.00000031c4.00000031 4.00000031 6 7.99999969 6 13.99999969 0 12-7.99999969 19.99999969-19.99999968 19.99999968-6 0-10.00000031-1.99999969-13.99999969-5.99999999l-199.99999969-199.99999969C74 394.00000031 72.00000031 390 72.00000031 384s1.99999969-10.00000031 6-13.99999969l199.99999969-199.99999969c4.00000031-4.00000031 7.99999969-6 13.99999969-5.99999999 12 0 19.99999969 7.99999969 19.99999968 19.99999968 0 6-1.99999969 10.00000031-6 13.99999969L140 364.00000031 932 364.00000031c12 0 19.99999969 7.99999969 19.99999969 19.99999969S944 403.99999969 932 403.99999969z"  horiz-adv-x="1024" />

    
    <glyph glyph-name="drive" unicode="&#59175;" d="M945.99999969 397.99999969l-199.99999969 199.99999969C741.99999969 601.99999969 738.00000031 604.00000031 732.00000031 604.00000031c-12 0-19.99999969-7.99999969-19.99999968-19.99999968 0-6 1.99999969-10.00000031 5.99999999-13.99999969l166.00000032-166.00000031L92 403.99999969c-12 0-19.99999969-7.99999969-19.99999969-19.99999969s7.99999969-19.99999969 19.99999969-19.99999969l792 0-166.00000031-166.00000031C714.00000031 193.99999968999998 711.99999969 190.00000031000002 711.99999969 184.00000031000002c0-12 7.99999969-19.99999969 19.99999968-19.99999968 6 0 10.00000031 1.99999969 13.99999969 5.99999999l199.99999969 199.99999969c4.00000031 4.00000031 6 7.99999969 6 13.99999969S950 394.00000031 945.99999969 397.99999969z"  horiz-adv-x="1024" />

    
    <glyph glyph-name="bgcustom" unicode="&#59008;" d="M926.063457 700.605821c-45.726437 13.043061-88.846514 18.361183-128.733966 18.361183-172.867116 0-284.708344-99.638301-284.708344-99.638301l-1.157359 0.049119-1.125637-0.049119c0 0-111.833041 99.638301-284.691971 99.638301-39.857776 0-82.9799-5.318122-128.73192-18.361183-13.043061-3.713578-22.100344-15.903202-22.100344-29.903054l0-521.15859c0-17.359366 13.646811-31.006178 29.903054-31.006178 1.429559 0 2.930749 0.103354 4.437056 0.303922 25.563212 3.914146 63.667042 8.226359 108.293425 8.226359 81.120552 0 183.895287-14.098089 272.51872-70.039169 6.268774-3.90903 13.320377-5.915733 20.37198-5.915733 0.375553 0 0.7552 0.049119 1.12973 0.049119 0.401136 0 0.773619-0.049119 1.153266-0.049119 7.046486 0 14.098089 2.006703 20.344351 5.915733 88.663342 55.942103 191.44217 70.039169 272.541233 70.039169 44.675502 0 82.756819-4.311189 108.315938-8.226359 1.506307-0.201591 2.962471-0.303922 4.442172-0.303922 16.229636 0 29.898961 13.646811 29.898961 31.006178L948.163801 670.701744C948.190407 684.70262 939.106518 696.892243 926.063457 700.605821L926.063457 700.605821 926.063457 700.605821 926.063457 700.605821zM494.979348 89.93863799999997c-75.726705 44.603871-171.352623 68.131727-277.510408 68.131727-47.182602 0-87.345324-4.666276-112.681362-8.527211L104.787578 670.701744c0 0 0.054235 0.049119 0.076748 0.049119 40.108486 11.43954 80.749092 17.207917 120.781854 17.207917 36.450167 0 72.970942-4.76349 108.593254-14.196327 28.647457-7.574512 56.767911-18.20871 83.632769-31.556717 45.453215-22.574135 71.969125-45.555545 72.9208-46.404889l4.539386-4.066619L494.979348 89.93863799999997 494.979348 89.93863799999997 494.979348 89.93863799999997 494.979348 89.93863799999997zM918.211629 149.54315399999996c-25.358551 3.860934-65.494667 8.527211-112.703875 8.527211-106.157785 0-201.765283-23.526833-277.532921-68.131727l-0.38067 501.796614 4.568039 4.066619c0.956791 0.848321 27.471678 23.830755 72.934103 46.404889 26.874067 13.346983 55.021128 23.982204 83.641979 31.556717 35.622312 9.432837 72.143087 14.196327 108.59223 14.196327 40.032762 0 80.69588-5.768377 120.782877-17.207917 0.027629 0 0.071631-0.049119 0.098237-0.049119L918.211629 149.54315399999996 918.211629 149.54315399999996 918.211629 149.54315399999996 918.211629 149.54315399999996zM227.930199 718.967004c2.054799 0 4.060479 0 6.121418-0.049119l-0.026606 0.049119L227.930199 718.967004 227.930199 718.967004 227.930199 718.967004 227.930199 718.967004zM227.930199 718.967004"  horiz-adv-x="1024" />

    
    <glyph glyph-name="icreport" unicode="&#59013;" d="M59.733333 384l85.333333 46.933333c4.266667 0 8.533333 0 12.8 0l349.866667-192c4.266667 0 8.533333 0 12.8 0l349.866667 192c4.266667 0 8.533333 0 12.8 0l85.333333-46.933333-443.733333-247.466667c-4.266667 0-8.533333 0-12.8 0L59.733333 384zM81.066667 593.066667l426.666667 234.666667c4.266667 0 8.533333 0 12.8 0l426.666667-234.666667c8.533333-4.266667 8.533333-17.066667 0-21.333333l-426.666667-234.666667c-4.266667 0-8.533333 0-12.8 0l-426.666667 234.666667C72.533333 580.266667 72.533333 588.8 81.066667 593.066667zM516.266667 38.39999999999998l349.866667 192c4.266667 0 8.533333 0 12.8 0l85.333333-46.933333-443.733333-247.466667c-4.266667 0-8.533333 0-12.8 0L59.733333 183.46666700000003l85.333333 46.933333c4.266667 0 8.533333 0 12.8 0l349.866667-192C507.733333 34.13333299999999 516.266667 34.13333299999999 516.266667 38.39999999999998z"  horiz-adv-x="1024" />

    
    <glyph glyph-name="caozuorizhi" unicode="&#58978;" d="M960 768h-768v-896h768v896zM832 896h-768v-896h64v832h704v64zM320 640h448v-128h-448v128zM320 384h448v-128h-448v128zM320 128h448v-128h-448v128z"  horiz-adv-x="1024" />

    
    <glyph glyph-name="dictionaries" unicode="&#59026;" d="M67.030138-30.781818000000044l890.334721 0L957.364859 188.26403700000003 67.030138 188.26403700000003 67.030138-30.781818000000044zM511.17368 137.04039899999998L906.14122 137.04039899999998l0-116.598578L511.17368 20.441820000000007 511.17368 137.04039899999998zM67.030138 798.211836l0-219.045855 890.334721 0L957.364859 798.211836 67.030138 798.211836zM906.14122 630.3896199999999L512.196986 630.3896199999999 512.196986 746.989221 906.14122 746.989221 906.14122 630.3896199999999zM67.030138 274.192082l890.334721 0L957.364859 493.237937 67.030138 493.237937 67.030138 274.192082zM511.17368 442.014298L906.14122 442.014298l0-116.598578L511.17368 325.41571999999996 511.17368 442.014298z"  horiz-adv-x="1024" />

    
    <glyph glyph-name="produce" unicode="&#58944;" d="M919.8125-6.234375L104.1875-6.234375c-23.203125 0-42.1875 18.984375-42.1875 41.484375L62 732.046875c0 23.203125 18.984375 41.484375 42.1875 41.484375l815.625 0c23.203125 0 42.1875-18.984375 42.1875-41.484375l0-696.796875C962 12.046875 943.015625-6.234375 919.8125-6.234375zM146.375 732.046875c-23.203125 0-42.1875-18.984375-42.1875-41.484375 0-23.203125 18.984375-41.484375 42.1875-41.484375s42.1875 18.984375 42.1875 41.484375C188.5625 713.0625 169.578125 732.046875 146.375 732.046875zM272.9375 732.046875c-23.203125 0-42.1875-18.984375-42.1875-41.484375 0-23.203125 18.984375-41.484375 42.1875-41.484375 23.203125 0 42.1875 18.984375 42.1875 41.484375C315.125 713.0625 296.140625 732.046875 272.9375 732.046875zM399.5 732.046875c-23.203125 0-42.1875-18.984375-42.1875-41.484375 0-23.203125 18.984375-41.484375 42.1875-41.484375 23.203125 0 42.1875 18.984375 42.1875 41.484375C441.6875 713.0625 422.703125 732.046875 399.5 732.046875zM919.8125 605.484375L104.1875 605.484375l0-570.234375 815.625 0L919.8125 605.484375zM374.890625 496.5c4.21875 4.21875 10.546875 4.21875 14.765625 0 4.21875-4.21875 4.21875-10.546875 0-14.765625L242 334.78125l147.65625-146.953125c4.21875-4.21875 4.21875-10.546875 0-14.765625s-10.546875-4.21875-14.765625 0l-154.6875 154.6875C218.09375 329.15625 216.6875 331.96875 216.6875 334.78125c0 2.8125 0.703125 5.625 2.8125 7.734375L374.890625 496.5zM561.921875 452.203125c2.8125 4.921875 9.140625 7.03125 14.0625 4.21875 4.921875-2.8125 7.03125-8.4375 4.921875-14.0625l-119.53125-225.703125c-2.8125-4.921875-9.140625-7.03125-14.0625-4.21875-4.921875 2.8125-7.03125 8.4375-4.921875 14.0625L561.921875 452.203125zM634.34375 496.5c4.21875 4.21875 10.546875 4.21875 14.765625 0l154.6875-154.6875c2.109375-2.109375 2.8125-4.921875 2.8125-7.734375 0-2.8125-0.703125-5.625-2.8125-7.734375l-154.6875-154.6875c-4.21875-4.21875-10.546875-4.21875-14.765625 0-4.21875 4.21875-4.21875 10.546875 0 14.765625l147.65625 147.65625-147.65625 147.65625C630.125 485.953125 630.125 492.28125 634.34375 496.5z"  horiz-adv-x="1024" />

    
    <glyph glyph-name="dict" unicode="&#58943;" d="M336.27031325 120.24818346999996L336.27031325 826.06799075l539.8069248 0 5.69726293 0c12.86253227 0 23.30168889-10.43915662 23.30168889-23.30168888l0-658.58728392c0-12.86253227-10.43915662-23.30168889-23.30168889-23.30168888-0.13981013 0-0.25631858 0.03495253-0.39612871 0.03495253-1.71267413-0.40777955-3.49525333-0.67574898-5.33608676-0.67574898L336.27031325 120.23653262000005zM881.77450098-58.09129244999997c12.86253227 0 23.30168889 10.43915662 23.30168889 23.3016889l0 87.70755697c0 12.86253227-10.43915662 23.30168889-23.30168889 23.30168889s-23.30168889-10.43915662-23.30168889-23.30168889l0-64.40586809L336.27031325-11.48791467000001l0-46.60337778L881.77450098-58.09129244999997zM273.77518365-11.48791467000001c-35.40691627 0-64.31266133 28.11348765-65.73406436 63.17087858 0.03495253 0.61749475 0.15146098 1.21168782 0.13981013 1.85248427-0.02330169 1.02527431-0.05825422 2.62144-0.08155591 4.74189369 2.03889778 34.4981504 30.67667342 61.9708416 65.67581014 61.9708416l15.89175182 0L289.66693547 826.06799075l-15.85679929 0c-62.01744498 0-112.46560142-50.45980729-112.46560143-112.46560142 0-0.82720995 0.16311182-1.61946738 0.24466774-2.42337564-0.08155591-57.27555129-0.79225742-583.56749653-0.08155591-652.76186169-0.04660338-1.35149795-0.2097152-2.66804338-0.2097152-4.03119218 0-59.62902187 46.68493369-108.43440925 105.40518969-112.11607609 1.17673529-0.18641351 2.33016889-0.36117618 3.55350755-0.36117618l19.41030685 0 0 46.60337778L273.77518365-11.48791467000001z"  horiz-adv-x="1024" />

    
    <glyph glyph-name="corresponding" unicode="&#58947;" d="M263.14897636 698.40968818l0 41.30224355c0 11.13820729-9.02940445 20.16761173-20.16761174 20.16761174-11.13820729 0-20.15596089-9.02940445-20.15596088-20.16761174l0-409.63203982c0-1.63111822 0.24466773-3.20398222 0.60584391-4.718592-0.02330169-33.58938453-0.03495253-67.20207075-0.04660338-99.18363876l-14.31888782 0c-30.29219555 0-55.07354169-23.77937351-56.8328192-53.64048782 0.02330169-1.82918258 0.04660338-3.20398222 0.06990507-4.10109724 0.01165085-0.54758969-0.08155591-1.06022685-0.11650845-1.59616569 1.22333867-30.35044978 26.23770169-54.67741298 56.87942258-54.67741298l14.35384035 0c0.01165085-15.12279609 0.03495253-28.71933155 0.05825422-40.33522347l-17.46461582 0c-1.048576 0-2.05054862 0.15146098-3.07582293 0.30292196-50.82098347 3.18068053-91.226112 45.41499165-91.226112 97.02823254 0 1.17673529 0.13981013 2.31851805 0.17476267 3.48360248-0.61749475 59.89699129 0 515.38675485 0.06990506 564.96109796-0.08155591 0.69905067-0.22136605 1.38645049-0.22136604 2.097152 0 53.67544035 43.66736498 97.34280533 97.34280533 97.34280533l32.22623573 0 489.02089387 0 4.9283072 0c11.13820729 0 20.16761173-9.02940445 20.16761173-20.16761173l0-77.31500374-394.264576 0C322.83625245 739.58377245 288.12838685 723.78522738 263.14897636 698.40968818zM309.34457458 31.655162310000037c0.02330169-1.82918258 0.04660338-3.20398222 0.06990507-4.10109724 0-0.54758969-0.09320675-1.06022685-0.11650845-1.60781654 1.22333867-30.33879893 26.23770169-54.67741298 56.89107342-54.67741298L872.23182222-28.73116445000005 872.23182222 27.01812622c0 11.13820729 9.02940445 20.16761173 20.16761174 20.16761173 11.13820729 0 20.16761173-9.02940445 20.16761173-20.16761173l0-75.9169024c0-11.13820729-9.02940445-20.16761173-20.16761173-20.16761173L363.13652338-69.06638791c-1.06022685 0-2.06219947 0.15146098-3.07582293 0.3145728-50.82098347 3.18068053-91.226112 45.41499165-91.226112 97.02823253 0 1.17673529 0.13981013 2.31851805 0.17476267 3.48360249-0.61749475 59.89699129 0 515.38675485 0.06990506 564.96109796-0.08155591 0.71070151-0.22136605 1.38645049-0.22136604 2.10880284 0 53.66378951 43.66736498 97.33115449 97.34280533 97.33115449l32.22623573 0 489.02089387 0 4.93995805 0c11.13820729 0 20.16761173-9.02940445 20.16761173-20.16761173l0-569.99426276c0-11.13820729-9.02940445-20.16761173-20.16761173-20.16761173-0.11650845 0-0.23301689 0.03495253-0.34952534 0.03495253-1.47965725-0.34952533-3.01756871-0.58254222-4.6137344-0.58254222L366.17739378 85.28399929C335.88519822 85.28399929 311.10385209 61.516276619999985 309.34457458 31.655162310000037zM379.93704107 189.19788088999996c0-11.13820729 9.02940445-20.16761173 20.16761173-20.16761174 11.13820729 0 20.16761173 9.02940445 20.16761174 20.16761174L420.27226454 598.82992071c0 11.13820729-9.02940445 20.16761173-20.16761174 20.16761174-11.13820729 0-20.16761173-9.02940445-20.16761173-20.16761174L379.93704107 189.19788088999996z"  horiz-adv-x="1024" />

    
    <glyph glyph-name="product" unicode="&#59267;" d="M542.827-62.35900000000004l0.595 510.235 415.657 145.084v-509.52l-416.252-145.798zM66.361 682.178l446.032 148.18 446.032-148.18-446.032-148.18-446.032 148.18zM481.959-62.35900000000004l-416.252 145.798v509.52l415.657-145.084 0.595-510.235z"  horiz-adv-x="1025" />

    
    <glyph glyph-name="submit" unicode="&#59040;" d="M510.545882 835.084629c-248.312412 0-449.610044-201.297632-449.610044-449.610044s201.297632-449.610044 449.610044-449.610044 449.610044 201.297632 449.610044 449.610044S758.859317 835.084629 510.545882 835.084629zM345.912287 65.51231900000005c-52.782134 0-95.723132 42.942021-95.723132 95.724155L250.189156 608.927819c0 51.887764 45.24139 95.723132 98.79305 95.723132l317.814346 0c52.782134 0 95.724155-42.940998 95.724155-95.723132l0-233.200226c-9.461489 1.583055-19.172665 2.420119-29.077246 2.420119-11.889795 0-23.505343-1.194198-34.738176-3.456728L698.705286 608.927819c0 17.593703-14.314007 31.907711-31.908734 31.907711L348.982206 640.8355300000001c-18.305925 0-34.977629-15.208377-34.977629-31.907711l0-447.690322c0-17.593703 14.314007-31.908734 31.907711-31.908734l227.873917 0c11.488659-24.967648 28.665877-46.793746 49.861618-63.815421L345.912287 65.51334199999997zM634.07429 416.931017c0-17.549701-14.358009-31.907711-31.907711-31.907711L411.031401 385.023306c-17.549701 0-31.907711 14.358009-31.907711 31.907711l0 0c0 17.549701 14.358009 31.907711 31.907711 31.907711l191.135178 0C619.71628 448.838727 634.07429 434.480718 634.07429 416.931017L634.07429 416.931017zM634.07429 544.985508c0-17.549701-14.358009-31.907711-31.907711-31.907711L411.031401 513.0777969999999c-17.549701 0-31.907711 14.358009-31.907711 31.907711l0 0c0 17.549701 14.358009 31.907711 31.907711 31.907711l191.135178 0C619.71628 576.8932179999999 634.07429 562.535209 634.07429 544.985508L634.07429 544.985508zM794.70778 181.506123l-31.460526-0.002047 0-88.267323c0-14.389732-11.665691-26.055422-26.055422-26.055422l-5.279237 0c-14.389732 0-26.055422 11.665691-26.055422 26.055422L705.857173 181.50407600000005l-33.015951 0.002047c-21.88545 0.001023-34.018791 25.351388-20.292162 42.397622l61.223387 76.025511c10.461259 12.989849 30.263258 12.9438 40.662095-0.095167l60.640102-76.025511C828.688709 206.743924 816.537971 181.50816899999995 794.70778 181.506123z"  horiz-adv-x="1024" />

    
    <glyph glyph-name="bgtheme" unicode="&#59043;" d="M191.490777 194.00478499999997l-90.905406 0c-17.156752 0-31.114648-13.967106-31.114648-31.136138l0-91.281983c0-17.168008 13.957897-31.136138 31.114648-31.136138l90.905406 0c17.156752 0 31.113625 13.967106 31.113625 31.136138l0 91.281983C222.605426 180.03767800000003 208.647529 194.00478499999997 191.490777 194.00478499999997zM171.381787 91.67416500000002l-50.686403 0 0 51.106981 50.686403 0L171.381787 91.67416500000002zM325.691245 632.446465l604.289939 0c14.145162 0 25.611308 11.467169 25.611308 25.611308s-11.466146 25.611308-25.611308 25.611308L325.691245 683.66908c-14.145162 0-25.611308-11.467169-25.611308-25.611308S311.546084 632.446465 325.691245 632.446465zM143.239843 641.768785l-34.221406 34.362622-36.295648-36.146245 70.517053-70.806649 122.883725 123.392308-36.295648 36.145222L143.239843 641.768785zM929.845085 413.254278L325.555146 413.254278c-14.145162 0-25.611308-11.467169-25.611308-25.611308s11.467169-25.612331 25.611308-25.612331l604.289939 0c14.145162 0 25.611308 11.467169 25.611308 25.612331S943.990247 413.254278 929.845085 413.254278zM929.845085 142.839475L325.555146 142.839475c-14.145162 0-25.611308-11.466146-25.611308-25.611308s11.467169-25.611308 25.611308-25.611308l604.289939 0c14.145162 0 25.611308 11.466146 25.611308 25.611308S943.990247 142.839475 929.845085 142.839475zM191.490777 464.419588l-90.905406 0c-17.156752 0-31.114648-13.967106-31.114648-31.136138l0-91.283006c0-17.168008 13.957897-31.136138 31.114648-31.136138l90.905406 0c17.156752 0 31.113625 13.967106 31.113625 31.136138l0 91.283006C222.605426 450.452481 208.647529 464.419588 191.490777 464.419588zM171.381787 362.088968l-50.686403 0 0 51.106981 50.686403 0L171.381787 362.088968z"  horiz-adv-x="1024" />

    
    <glyph glyph-name="one" unicode="&#58885;" d="M821.571103 695.2048110000001C738.506269 778.255319 628.075157 823.993013 510.610862 823.993013c-117.478621 0-227.919966-45.741787-310.975591-128.788202C116.571461 612.148164 70.818417 501.693516 70.818417 384.199545c0-117.464295 45.753043-227.895407 128.817877-310.970474 83.055624-83.050508 193.495946-128.822994 310.975591-128.822994 117.463272 0 227.894384 45.771463 310.974567 128.822994 83.065857 83.075067 128.817877 193.506179 128.817877 310.970474C950.403307 501.66384 904.651286 612.148164 821.571103 695.2048110000001L821.571103 695.2048110000001 821.571103 695.2048110000001zM752.090659 512.994909L452.580191 213.47830199999999l0 0c-0.192382-0.188288-0.38067-0.322341-0.568958-0.51063-5.713119-5.442966-13.068643-8.184403-20.423145-8.184403-2.818185 0-5.637394 0.375553-8.377808 1.179872-0.024559 0.028653-0.053212 0.028653-0.077771 0.028653-1.291412 0.400113-2.524496 0.881067-3.762697 1.421372-3.164063 1.450025-6.169513 3.434216-8.775874 6.065136l-0.014326 0L268.8384 355.21030299999995c-11.595083 11.595083-11.595083 30.386054 0 41.98216 11.594059 11.599176 30.386054 11.599176 41.980113 0l120.769574-120.764458 278.521434 278.547017c11.595083 11.594059 30.386054 11.594059 41.981137 0C763.656065 543.380964 763.656065 524.588969 752.090659 512.994909L752.090659 512.994909 752.090659 512.994909zM752.090659 512.994909"  horiz-adv-x="1024" />

    
    <glyph glyph-name="right" unicode="&#59005;" d="M511.609097-65.61925399999996M662.268422 384.989537L280.997835 3.7005309999999554c-14.785751-14.808264-14.785751-38.796608 0-53.562916 14.788821-14.807241 38.776142-14.807241 53.584406 0l408.226518 408.230612c14.789844 14.790868 14.789844 38.777165 0 53.585429-1.01512 1.020236-2.099824 1.976004-3.206018 2.843768L333.797365 820.649871c-14.808264 14.788821-38.795585 14.788821-53.607942 0-14.762215-14.808264-14.762215-38.796608 0-53.585429L662.268422 384.989537 662.268422 384.989537 662.268422 384.989537zM662.268422 384.989537"  horiz-adv-x="1024" />

    
    <glyph glyph-name="left" unicode="&#59006;" d="M511.609097-65.61925399999996M360.749204 384.989537L360.749204 384.989537l382.080022 382.074905c14.762215 14.788821 14.762215 38.777165 0 53.585429-14.812357 14.788821-38.799678 14.788821-53.607942 0L283.415908 414.798447c-1.107217-0.867764-2.190899-1.824555-3.206018-2.843768-14.788821-14.808264-14.788821-38.795585 0-53.585429l408.226518-408.230612c14.808264-14.807241 38.795585-14.807241 53.584406 0 14.785751 14.767332 14.785751 38.754652 0 53.562916L360.749204 384.989537 360.749204 384.989537zM360.749204 384.989537"  horiz-adv-x="1024" />

    
    <glyph glyph-name="state" unicode="&#58964;" d="M482.87288889 850.03377778l58.25422222 0 0-466.03377778-58.25422222 0 0 466.03377778ZM482.87288889 34.47466667000003l58.25422222 0 0-116.50844445-58.25422222 0 0 116.50844445ZM278.98311111 733.52533333l466.03377778 0 0-291.27111111-466.03377778 0 0 291.27111111ZM803.27111111 325.74577778l0-233.01688889L220.72888889 92.72888889000001l0 233.01688889L803.27111111 325.74577778M861.52533333 384L162.47466667 384l0-349.52533333 699.05066666 0L861.52533333 384 861.52533333 384z"  horiz-adv-x="1024" />

    
    <glyph glyph-name="iccomposite" unicode="&#59038;" d="M483.882616 412.242228L184.580902 412.242228c-60.681034 0-110.049418 49.367361-110.049418 110.049418L74.531484 711.543941c0 60.681034 49.367361 110.049418 110.049418 110.049418l189.252295 0c60.681034 0 110.049418-49.367361 110.049418-110.049418L483.882616 412.242228zM184.580902 781.575948c-38.614459 0-70.030983-31.416524-70.030983-70.030983l0-189.253318c0-38.614459 31.416524-70.030983 70.030983-70.030983l259.283278 0L443.86418 711.543941c0 38.614459-31.416524 70.030983-70.030983 70.030983L184.580902 781.574924zM840.875263 412.242228L539.619034 412.242228 539.619034 711.543941c0 60.681034 49.367361 110.049418 110.049418 110.049418L840.875263 821.59336c60.681034 0 110.049418-49.367361 110.049418-110.049418l0-189.253318C950.924681 461.609589 901.556297 412.242228 840.875263 412.242228zM579.636446 452.25964L840.875263 452.25964c38.614459 0 70.030983 31.416524 70.030983 70.030983L910.906246 711.543941c0 38.614459-31.416524 70.030983-70.030983 70.030983L649.667429 781.574924c-38.615483 0-70.030983-31.416524-70.030983-70.030983L579.636446 452.25964zM373.83422-54.79881399999999L184.580902-54.79881399999999c-60.681034 0-110.049418 49.367361-110.049418 110.049418L74.531484 246.458437c0 60.681034 49.367361 110.049418 110.049418 110.049418l299.301713 0 0-301.257252C483.882616-5.430430000000001 434.515255-54.79881399999999 373.83422-54.79881399999999zM184.580902 316.490443c-38.614459 0-70.030983-31.416524-70.030983-70.030983l0-191.208856c0-38.614459 31.416524-70.030983 70.030983-70.030983l189.252295 0c38.614459 0 70.030983 31.416524 70.030983 70.030983l0 261.239839L184.580902 316.490443zM840.875263-54.79881399999999L649.667429-54.79881399999999c-60.681034 0-110.049418 49.367361-110.049418 110.049418L539.618011 356.50785599999995 840.875263 356.50785599999995c60.681034 0 110.049418-49.367361 110.049418-110.049418l0-191.208856C950.924681-5.430430000000001 901.556297-54.79881399999999 840.875263-54.79881399999999zM579.636446 316.490443l0-261.239839c0-38.614459 31.4155-70.030983 70.030983-70.030983L840.875263-14.780379000000039c38.614459 0 70.030983 31.416524 70.030983 70.030983L910.906246 246.458437c0 38.614459-31.416524 70.030983-70.030983 70.030983L579.636446 316.48942z"  horiz-adv-x="1024" />

    
    <glyph glyph-name="attributes" unicode="&#59176;" d="M827.73333333 819.2000000099999L213.33333333 819.2000000099999C138.23999999 819.2000000099999 76.79999999 757.76000001 76.79999999 682.66666667l0-614.4c0-75.09333333 61.44-136.53333333 136.53333334-136.53333333l614.4 0c75.09333333 0 136.53333333 61.44 136.53333333 136.53333333L964.26666666 682.66666667C964.26666666 757.76000001 902.82666666 819.2000000099999 827.73333333 819.2000000099999zM315.73333333 136.53333334C296.61866666 136.53333334 281.59999999 151.55200001000003 281.59999999 170.66666667000004 281.59999999 189.78133333999995 296.61866666 204.80000000999996 315.73333333 204.80000000999996 334.84799999 204.80000000999996 349.86666666 189.78133333999995 349.86666666 170.66666667000004 349.86666666 151.55200001000003 334.84799999 136.53333334 315.73333333 136.53333334zM315.73333333 341.33333333999997C296.61866666 341.33333333999997 281.59999999 356.35200001 281.59999999 375.46666667 281.59999999 394.58133334 296.61866666 409.60000001 315.73333333 409.60000001 334.84799999 409.60000001 349.86666666 394.58133334 349.86666666 375.46666667 349.86666666 356.35200001 334.84799999 341.33333333999997 315.73333333 341.33333333999997zM315.73333333 546.13333334C296.61866666 546.13333334 281.59999999 561.1520000099999 281.59999999 580.26666667 281.59999999 599.3813333400001 296.61866666 614.40000001 315.73333333 614.40000001 334.84799999 614.40000001 349.86666666 599.3813333400001 349.86666666 580.26666667 349.86666666 561.1520000099999 334.84799999 546.13333334 315.73333333 546.13333334zM725.33333333 136.53333334l-273.06666667 0C433.15199999 136.53333334 418.13333333 151.55200001000003 418.13333333 170.66666667000004 418.13333333 189.78133333999995 433.15199999 204.80000000999996 452.26666666 204.80000000999996l273.06666667 0c19.11466667 0 34.13333333-15.01866667 34.13333333-34.13333334C759.46666666 151.55200001000003 744.44799999 136.53333334 725.33333333 136.53333334zM725.33333333 341.33333333999997l-273.06666667 0C433.15199999 341.33333333999997 418.13333333 356.35200001 418.13333333 375.46666667 418.13333333 394.58133334 433.15199999 409.60000001 452.26666666 409.60000001l273.06666667 0C744.44799999 409.60000001 759.46666666 394.58133334 759.46666666 375.46666667 759.46666666 356.35200001 744.44799999 341.33333333999997 725.33333333 341.33333333999997zM725.33333333 546.13333334l-273.06666667 0C433.15199999 546.13333334 418.13333333 561.1520000099999 418.13333333 580.26666667 418.13333333 599.3813333400001 433.15199999 614.40000001 452.26666666 614.40000001l273.06666667 0C744.44799999 614.40000001 759.46666666 599.3813333400001 759.46666666 580.26666667 759.46666666 561.1520000099999 744.44799999 546.13333334 725.33333333 546.13333334z"  horiz-adv-x="1024" />

    
    <glyph glyph-name="sc" unicode="&#59310;" d="M305.96666666 599.82666666c-11.28 11.28-29.46 11.28-40.74 0L83.12666666 417.90666666c-11.28-11.22-11.28-29.4 0-40.68l182.16-181.92c11.28-11.22 29.46-11.22 40.74 0 11.28 11.28 11.28 29.4 0 40.68L144.14666666 397.56666666l161.82 161.64C317.24666666 570.42666666 317.24666666 588.60666666 305.96666666 599.82666666zM969.38666666 417.90666666l-182.16 181.92c-11.28 11.28-29.52 11.28-40.74 0-11.28-11.22-11.28-29.4 0-40.62l161.82-161.64-161.82-161.58c-11.28-11.28-11.28-29.4 0-40.68 11.22-11.22 29.46-11.22 40.74 0l182.16 181.92C980.66666666 388.44666666 980.66666666 406.68666666 969.38666666 417.90666666zM721.22666666 782.34666666c-14.34 8.4-32.7 3.42-40.98-11.1l-360-718.92c-8.34-14.46-3.42-33 10.98-41.28 14.34-8.4 32.7-3.42 41.04 11.1l359.94 718.92C740.54666666 755.46666666 735.62666666 774.00666666 721.22666666 782.34666666z"  horiz-adv-x="1024" />

    
    <glyph glyph-name="property" unicode="&#59416;" d="M827.73333333 819.2000000099999L213.33333333 819.2000000099999C138.23999999 819.2000000099999 76.79999999 757.76000001 76.79999999 682.66666667l0-614.4c0-75.09333333 61.44-136.53333333 136.53333334-136.53333333l614.4 0c75.09333333 0 136.53333333 61.44 136.53333333 136.53333333L964.26666666 682.66666667C964.26666666 757.76000001 902.82666666 819.2000000099999 827.73333333 819.2000000099999zM315.73333333 136.53333334C296.61866666 136.53333334 281.59999999 151.55200001000003 281.59999999 170.66666667000004 281.59999999 189.78133333999995 296.61866666 204.80000000999996 315.73333333 204.80000000999996 334.84799999 204.80000000999996 349.86666666 189.78133333999995 349.86666666 170.66666667000004 349.86666666 151.55200001000003 334.84799999 136.53333334 315.73333333 136.53333334zM315.73333333 341.33333333999997C296.61866666 341.33333333999997 281.59999999 356.35200001 281.59999999 375.46666667 281.59999999 394.58133334 296.61866666 409.60000001 315.73333333 409.60000001 334.84799999 409.60000001 349.86666666 394.58133334 349.86666666 375.46666667 349.86666666 356.35200001 334.84799999 341.33333333999997 315.73333333 341.33333333999997zM315.73333333 546.13333334C296.61866666 546.13333334 281.59999999 561.1520000099999 281.59999999 580.26666667 281.59999999 599.3813333400001 296.61866666 614.40000001 315.73333333 614.40000001 334.84799999 614.40000001 349.86666666 599.3813333400001 349.86666666 580.26666667 349.86666666 561.1520000099999 334.84799999 546.13333334 315.73333333 546.13333334zM725.33333333 136.53333334l-273.06666667 0C433.15199999 136.53333334 418.13333333 151.55200001000003 418.13333333 170.66666667000004 418.13333333 189.78133333999995 433.15199999 204.80000000999996 452.26666666 204.80000000999996l273.06666667 0c19.11466667 0 34.13333333-15.01866667 34.13333333-34.13333334C759.46666666 151.55200001000003 744.44799999 136.53333334 725.33333333 136.53333334zM725.33333333 341.33333333999997l-273.06666667 0C433.15199999 341.33333333999997 418.13333333 356.35200001 418.13333333 375.46666667 418.13333333 394.58133334 433.15199999 409.60000001 452.26666666 409.60000001l273.06666667 0C744.44799999 409.60000001 759.46666666 394.58133334 759.46666666 375.46666667 759.46666666 356.35200001 744.44799999 341.33333333999997 725.33333333 341.33333333999997zM725.33333333 546.13333334l-273.06666667 0C433.15199999 546.13333334 418.13333333 561.1520000099999 418.13333333 580.26666667 418.13333333 599.3813333400001 433.15199999 614.40000001 452.26666666 614.40000001l273.06666667 0C744.44799999 614.40000001 759.46666666 599.3813333400001 759.46666666 580.26666667 759.46666666 561.1520000099999 744.44799999 546.13333334 725.33333333 546.13333334z"  horiz-adv-x="1024" />

    
    <glyph glyph-name="contract" unicode="&#58880;" d="M205.49113174 184.38635520000003L205.49113174 183.2984576 205.49113174 116.22673066000004 205.49113174 115.13883306000002 206.5801216 115.13883306000002 753.3961216 115.13883306000002 754.48511147 115.13883306000002 754.48511147 116.22673066000004 754.48511147 183.2984576 754.48511147 184.38635520000003 753.3961216 184.38635520000003 206.5801216 184.38635520000003ZM838.17130667 345.68246612999997l-1.0878976 0 0-1.0878976 0-327.4473472L133.50966614 17.14722132999998 133.50966614 720.69256533l327.47465386 0 1.0878976 0 0 1.0878976 0 52.44736853 0 1.0878976-1.0878976 0L131.4660352 775.31572906c-28.983296 0-52.5795328-23.5962368-52.5795328-52.5795328l0-707.6347904c0-29.01060267 23.5962368-52.6057472 52.5795328-52.6057472l707.6347904 0c29.01060267 0 52.6057472 23.5962368 52.6057472 52.6057472L891.7065728 344.59347626l0 1.0878976-1.0878976 0L838.17130667 345.68137386zM205.11976107 370.97608533000005L204.03186347 370.97608533000005 204.03186347 369.88818773 204.03186347 302.7902464 204.03186347 301.7023488 205.11976107 301.7023488 723.80224854 301.7023488 724.89014614 301.7023488 724.89014614 302.7902464 724.89014614 369.88818773 724.89014614 370.97608533000005 723.80224854 370.97608533000005ZM206.5801216 553.66423893L205.49113174 553.66423893 205.49113174 552.57634133 205.49113174 485.5046144 205.49113174 484.4167168 206.5801216 484.4167168 575.06174294 484.4167168 576.14964054 484.4167168 576.14964054 485.5046144 576.14964054 552.57634133 576.14964054 553.66423893 575.06174294 553.66423893ZM948.42688854 640.8019968c-2.76015787 2.76015787-6.44983467 4.30025387-10.3514112 4.30025386l-19.26976854 0c-7.1401472 0-14.70409387 5.6000512-16.85367466 12.4747776l-10.059776 24.444928c-3.424256 6.3963136-2.04363093 15.6336128 2.99936426 20.676608l13.66862507 13.64241067c2.76015787 2.78637227 4.2729472 6.47604907 4.2729472 10.3776256 0 3.92779093-1.51278933 7.61746773-4.2729472 10.3776256l-23.19755947 23.1440384c-2.76015787 2.76015787-6.42362027 4.2729472-10.3251968 4.2729472s-7.59125333-1.51278933-10.3776256-4.2729472l-13.64241066-13.66862507c-3.02557867-3.05179307-7.80315307-4.85730987-12.79371947-4.85730986-2.9196288 0-5.65357227 0.63679147-7.9364096 1.8317312l-24.3924992 10.0859904c-6.82120533 2.097152-12.500992 9.7943552-12.500992 16.82746026l0 19.29598294c0 3.92779093-1.51278933 7.59125333-4.2729472 10.3514112-2.78746453 2.76015787-6.44983467 4.30025387-10.3514112 4.30025386l-32.72649387 0c-3.90157653 0-7.56394667-1.53900373-10.3776256-4.30025386-2.76015787-2.76015787-4.30025387-6.44983467-4.30025386-10.3514112l0-19.29598294c0-7.1401472-5.5738368-14.70409387-12.4485632-16.85367466l-24.4187136-10.03246934c-2.30905173-1.22115413-5.0167808-1.8579456-7.9364096-1.8579456-4.96325973 0-9.71461973 1.80442453-12.7401984 4.85730987l-13.72214614 13.66862507c-2.73394347 2.73394347-6.42362027 4.2467328-10.3514112 4.2467328s-7.59125333-1.51278933-10.3514112-4.2729472l-23.117824-23.117824c-2.73394347-2.73394347-4.2729472-6.42362027-4.30025386-10.3776256 0-3.90157653 1.53900373-7.59125333 4.30025386-10.3251968l13.64241067-13.69593174c5.09651627-5.0692096 6.42362027-14.3327232 2.99936427-20.676608l-10.059776-24.4187136c-2.1495808-6.9271552-9.68731307-12.500992-16.85367467-12.500992l-19.26976853 0c-3.92779093 0-7.61746773-1.53900373-10.3514112-4.30025386-2.76015787-2.73394347-4.30025387-6.42362027-4.30025387-10.3514112l0-32.72649387c0-3.9550976 1.53900373-7.64368213 4.30025387-10.3776256 2.76015787-2.76015787 6.42362027-4.2729472 10.3514112-4.2729472l19.26976853 0c7.1663616-0.0262144 14.70409387-5.62735787 16.82746027-12.4747776l10.0859904-24.444928c3.424256-6.3963136 2.04363093-15.6598272-2.99936427-20.7028224l-13.69593173-13.64241067c-2.76015787-2.76015787-4.2729472-6.44983467-4.2729472-10.3776256 0-3.90157653 1.51278933-7.56394667 4.2729472-10.3514112l23.19755946-23.1440384c2.76015787-2.76015787 6.42362027-4.2729472 10.3251968-4.2729472 3.92779093 0 7.61746773 1.51278933 10.3776256 4.2729472l13.66862507 13.64241067c3.05179307 3.05179307 7.80315307 4.85730987 12.713984 4.85730987 2.86610773 0 5.6000512-0.66409813 7.90910293-1.88416l24.4711424-10.03246934c6.9271552-2.17688747 12.4747776-9.74083413 12.4747776-16.88098133l0-19.21624747c0-3.90157653 1.53900373-7.56394667 4.30025387-10.3776256 2.76015787-2.73394347 6.44983467-4.2467328 10.3514112-4.2467328l32.72649387 0c3.92779093 0 7.61746773 1.51278933 10.3776256 4.2467328 2.76015787 2.78637227 4.2729472 6.47604907 4.2729472 10.3776256l0 19.21624747c0 7.1401472 5.6000512 14.70409387 12.4747776 16.85367467l24.4711424 10.059776c2.33526613 1.24736853 5.0429952 1.88416 7.9364096 1.88416 4.96325973 0 9.71461973-1.80442453 12.7664128-4.85730987l13.58998186-13.61619627c2.76015787-2.78637227 6.44983467-4.32646827 10.40493227-4.32646826 3.90157653 0 7.56394667 1.51278933 10.3251968 4.2729472l23.19755947 23.17134506c2.76015787 2.78637227 4.2729472 6.44983467 4.2729472 10.3514112 0 3.92779093-1.51278933 7.61746773-4.2729472 10.3776256l-13.66862507 13.64241067c-4.96325973 4.93704533-6.3438848 14.41245867-3.02557867 20.7028224l10.0859904 24.4187136c2.097152 6.82120533 9.7943552 12.4747776 16.85367467 12.4747776l19.24246187 0c3.90157653 0 7.56394667 1.53900373 10.3776256 4.30025387 2.76015787 2.78637227 4.2729472 6.47604907 4.2729472 10.3776256l0 32.72649386C952.69983574 634.37837653 951.1870464 638.04183893 948.42688854 640.8019968zM832.81046187 614.12666026c0-38.8038656-31.5588608-70.3627264-70.3627264-70.3627264s-70.3889408 31.5588608-70.3889408 70.3627264 31.5850752 70.3627264 70.3889408 70.3627264S832.81046187 652.9316181300001 832.81046187 614.12666026z"  horiz-adv-x="1024" />

    
    <glyph glyph-name="foundation" unicode="&#58919;" d="M886.55680853 820.44900693L137.88883627 820.44900693c-34.48613547 0-62.79550293-27.17996373-62.79550294-61.63879253l0-559.5529216c0-34.48613547 28.3082752-62.50059093 62.79550294-62.50059093l257.16872533 0-38.8104192-189.20680107L668.19413333-52.450099199999954l-38.80495786 189.20680107 257.16763306 0c34.48613547 0 62.34985813 28.0133632 62.34985814 62.50059093L948.90666667 758.8102144C948.90666667 793.2690431999999 921.04403627 820.44900693 886.55680853 820.44900693L886.55680853 820.44900693zM513.56412587 125.77286827c-31.19732053 0-56.54336853 25.346048-56.54336854 56.54336853 0 31.2541184 25.346048 56.53681493 56.54336854 56.53681493 31.19076693 0 56.53681493-25.28269653 56.53681493-56.53681493C570.10203307 151.11891627 544.75598507 125.77286827 513.56412587 125.77286827L513.56412587 125.77286827zM886.74904747 259.23584000000005L138.1597184 259.23584000000005 138.1597184 760.12202667l748.58932907 0L886.74904747 259.23584000000005 886.74904747 259.23584000000005zM886.74904747 259.23584000000005"  horiz-adv-x="1024" />

    
    <glyph glyph-name="pixel" unicode="&#58968;" d="M737 159L962 159 962-66 737-66 737 159ZM399.5 159L624.5 159 624.5-66 399.5-66 399.5 159ZM62 159L287 159 287-66 62-66 62 159ZM737 496.5L962 496.5 962 271.5 737 271.5 737 496.5ZM399.5 496.5L624.5 496.5 624.5 271.5 399.5 271.5 399.5 496.5ZM62 496.5L287 496.5 287 271.5 62 271.5 62 496.5ZM737 834L962 834 962 609 737 609 737 834ZM399.5 834L624.5 834 624.5 609 399.5 609 399.5 834ZM62 834L287 834 287 609 62 609 62 834Z"  horiz-adv-x="1024" />

    
    <glyph glyph-name="icaccrual" unicode="&#59014;" d="M694.26516 609.01173L512 426.745547 329.732793 609.01173c-8.287757 8.287757-21.724791 8.286734-30.012547-0.001023-8.286734-8.286734-8.286734-21.723767 0-30.011524l161.04486-161.043836-108.634186 0c-11.720949 0-21.221324-9.502421-21.221324-21.221324s9.501398-21.221324 21.221324-21.221324l139.000797 0 0-89.12997L363.803773 286.38272900000004c-11.720949 0-21.221324-9.502421-21.221324-21.221324s9.501398-21.221324 21.221324-21.221324l127.328967 0 0-131.572618c0-11.718903 9.502421-21.221324 21.221324-21.221324s21.221324 9.502421 21.221324 21.221324L533.575388 243.94008099999996l127.327944 0c11.719926 0 21.221324 9.502421 21.221324 21.221324S672.623257 286.38272900000004 660.903332 286.38272900000004L533.575388 286.38272900000004l0 89.12997 138.999774 0c11.719926 0 21.221324 9.502421 21.221324 21.221324s-9.502421 21.221324-21.221324 21.221324L563.233871 417.955346l161.043836 161.043836c8.287757 8.287757 8.287757 21.724791 0 30.012547C715.987904 617.299487 702.554964 617.299487 694.26516 609.01173zM512 830.709995c-246.316965 0-446.709995-200.39303-446.709995-446.708971 0-246.316965 200.39303-446.709995 446.709995-446.709995s446.709995 200.39303 446.709995 446.709995C958.709995 630.316965 758.316965 830.709995 512 830.709995zM512-20.266323000000057c-222.913952 0-404.267347 181.353394-404.267347 404.267347S289.086048 788.266323 512 788.266323s404.267347-181.352371 404.267347-404.266323S734.912929-20.266323000000057 512-20.266323000000057z"  horiz-adv-x="1024" />

    
    <glyph glyph-name="bgmaintain" unicode="&#59009;" d="M62.647317 381.55532100000005L510.705006 832.837448l84.023672-84.024695L292.506449 448.228837l666.914232 0 0-127.940904L292.506449 320.28793299999995l302.222229-299.651684-84.023672-84.009346L62.647317 381.55532100000005z"  horiz-adv-x="1024" />

    
    <glyph glyph-name="backtrack" unicode="&#58928;" d="M538.62284601-54.29125499999998c257.534448 171.658591 308.738643 462.119963-75.50464802 453.027887l2e-8-225.514173L121.893676 514.470517 463.11819799 855.718575l0-220.701564c218.259956 5.67321001 470.02704999-96.270601 470.02705001-280.69596C933.146271 82.88089500000001 768.337691 21.237952999999948 538.62284601-54.29125499999998"  horiz-adv-x="1024" />

    
    <glyph glyph-name="icrecord" unicode="&#59015;" d="M987.12500029 555.93750029L934.25000029 608.71875C919.62500029 623.34375 893.56249971 620.99999971 876.03125029 603.375L478.25 205.59374971C460.62500029 188.06250029 458.28125 161.99999971 472.90625 147.37499971l52.78124971-52.875c14.625-14.53124971 40.68749971-12.18750029 58.31250029 5.43750029L981.6875 497.625C999.31249971 515.24999971 1001.75000029 541.31250029 987.12500029 555.93750029zM565.81250029 45.46875029l1.87499971-1.59374971L402.21874971-43.5 737-43.5c24.93749971 0 45 20.15624971 45 45L782 257.4375 577.43749971 53.8125C573.78124971 50.25000029 569.75000029 48.1875 565.81250029 45.46875029zM420.68750029 169.96875C423.96875 178.6875 428.56250029 187.21875029 435.96874971 194.53125029L782 538.96875 782 789C782 813.84375029 761.84375029 834 737 834L107 834C82.15624971 834 62 813.84375029 62 789l0-787.40624971c0-24.93749971 20.15624971-45 45-45l222.56250029 0 89.06249971 215.25000029L420.68750029 169.96875zM174.5 766.5l472.5 0c24.93749971 0 45-12.375 45-27.74999971 0-15.37499971-20.15624971-27.65625029-45-27.65625029L174.5 711.09375c-24.84375029 0-45 12.375-45 27.65625029C129.5 754.125 149.65624971 766.5 174.5 766.5zM174.5 618.28125l472.5 0c24.93749971 0 45-13.03125029 45-29.06250029 0-16.03125-20.15624971-29.06250029-45-29.0625003L174.5 560.15625029c-24.84375029 0-45 13.03125029-45 29.0625003C129.5 605.24999971 149.65624971 618.28125 174.5 618.28125zM174.5 406.68749971c-24.84375029 0-45 13.5-45 29.99999971s20.15624971 29.99999971 45 29.9999997l292.5 0c24.84375029 0 45-13.40624971 45-29.9999997s-20.15624971-29.99999971-45-29.99999971L174.5 406.68749971zM428.75 144.18750029L343.8125-51.65625l189.09375029 96.37499971L428.75 144.18750029z"  horiz-adv-x="1076" />

    
    <glyph glyph-name="dictionary" unicode="&#59028;" d="M945.125093 642.900561c-7.411807 10.317996-18.319228 17.775852-31.775704 23.152303 0.542352-12.384052-0.218988-22.547529-2.688225-30.688953L749.083162 103.76452800000004c-5.747911-18.897396-27.998681-30.676673-49.009204-30.676673L202.964086 73.087854c-43.091424 0-68.65259 12.494569-77.573773 37.697577-3.464915 9.78997-3.353374 17.312294 0.545422 23.155373 3.65218 5.470595 10.769274 8.080026 20.481474 8.080026l468.022393 0c33.390481 0 56.404638 6.061043 68.945255 18.304901 12.788258 12.524245 25.8876 40.370453 38.771025 82.9492l147.57508 487.949234c7.987928 26.415626 4.846378 50.096978-9.697873 70.018703-14.545274 19.937075-35.008328 30.160927-61.393255 30.160927L388.763746 831.403796c-4.846378 0-13.999852-1.614777-27.472702-4.848425l0.545422 1.616824c-68.948325 19.393699-71.946612-54.558593-95.334275-87.794555-7.303336-10.396791-21.957081-25.874297-23.696702-33.394574-1.490957-6.479575 3.356444-22.080901 2.703575-28.002774-1.490957-13.488199-6.695492-31.140231-15.087627-52.226478-8.314363-20.915355-15.618723-36.113499-22.6253-45.248553l-11.840676-12.385075c-6.060019-6.340405-10.239202-11.311627-11.840676-16.161075-1.632173-1.613754-1.89721-7.039323-0.544399-15.072277 1.351787-8.143471 2.068102-14.002922 1.616824-17.247826-1.708921-12.370749-5.918803-28.54615-13.472849-48.465828-7.535627-19.936051-15.198144-36.549427-22.607904-49.555649-1.198292-2.095731-4.320399-6.464225-9.169847-12.383028-4.832052-5.921873-8.096399-11.296277-9.152451-15.089673-1.647523-5.904477 2.161223-24.224728 0-31.233352-2.688225-13.450337-7.970532-30.201859-16.159028-49.530067-7.972579-18.895349-16.117073-35.585473-24.242124-49.04195-7.490601-12.399401-21.318538-26.384927-22.065552-36.608779-0.325411-4.350075 3.869121-16.162098 3.216251-22.065552L69.389882 186.71270500000003c-0.870834-8.113795-1.616824-12.930497-1.616824-14.544251-8.081049-21.539572-7.659447-44.194548 1.071402-68.403926 10.116405-28.03245 28.05087-51.65445 53.331649-70.548776 25.888624-19.329231 52.770877-29.089525 80.244602-29.089525l497.110895 0c23.153326 0 45.141106 8.204869 65.715701 23.713075 20.900006 15.756869 34.435277 34.465976 41.473577 57.621349l148.102083 487.965607C962.687074 599.329207 959.796234 622.527558 945.125093 642.900561zM338.681094 538.414859c2.968611 9.076726 13.472849 17.232476 22.60995 17.232476l327.470263 0c10.223852 0 14.824637-8.15575 11.840676-17.232476l-11.296277-34.463929c-2.983961-9.076726-13.472849-17.232476-22.6253-17.232476L339.210144 486.718453c-10.224876 0-14.824637 8.156774-11.840676 17.232476L338.681094 538.414859zM383.371946 676.293089c2.983961 9.076726 13.472849 17.232476 22.6253 17.232476l327.470263 0c10.242272 0 14.823614-8.156774 11.839653-17.232476l-11.310603-34.463929c-2.967588-9.074679-13.473873-17.247826-22.610974-17.247826L383.916345 624.581334c-10.224876 0-14.824637 8.17417-11.840676 17.247826L383.371946 676.293089z"  horiz-adv-x="1024" />

    
    <glyph glyph-name="parameter" unicode="&#59060;" d="M858.865625 216.96562500000005l-182.3625 0-37.9125 68.34375-158.878125-66.571875 37.715625-37.715625-51.69375-180.646875-180.646875-51.69375-128.953125 128.953125 51.69375 180.646875 180.675 51.69375 49.753125-49.753125 173.840625 72.84375-26.746875 48.20625 45.534375 82.040625-9.084375-9.084375-218.728125 124.9875 0-33.778125-164.30625-91.18125-164.30625 91.18125 0 182.3625 164.30625 91.18125 164.30625-91.18125 0-84.065625 246.0375-147.54375 27.421875 49.359375 182.3625 0 91.18125-164.30625-91.18125-164.278125z"  horiz-adv-x="1024" />

    
    <glyph glyph-name="detail" unicode="&#58929;" d="M334.016 791.31733332l129.984 0 0-833.984-129.984 0 0 833.984ZM528 541.3333333200001l129.984 0 0-584-129.984 0 0 584ZM720 601.30133332l62.016 0 0-643.968-62.016 0 0 643.968ZM206.016 541.3333333200001l62.016 0 0-584-62.016 0 0 584ZM80 279.31733332l62.016 0 0-321.984-62.016 0 0 321.984ZM845.312 345.30133332l62.016 0 0-387.968-62.016 0 0 387.968Z"  horiz-adv-x="1024" />

    
    <glyph glyph-name="detailed" unicode="&#58951;" d="M745.179429 640l-365.714286 0 0 219.428571 365.714286 0L745.179429 640zM452.608 713.142857l219.428571 0 0 73.142857-219.428571 0L452.608 713.142857zM964.608-91.42857100000003L160.036571-91.42857100000003 160.036571 786.285714 306.322286 786.285714 306.322286 713.142857 233.179429 713.142857 233.179429-18.285713999999984 891.465143-18.285713999999984 891.465143 713.142857 818.322286 713.142857 818.322286 786.285714 964.608 786.285714ZM306.322286 566.857143l219.428571 0 0-219.428571-219.428571 0 0 219.428571ZM598.893714 566.857143l219.428571 0 0-73.142857-219.428571 0 0 73.142857ZM598.893714 420.571429l219.428571 0 0-73.142857-219.428571 0 0 73.142857ZM306.322286 274.285714l512 0 0-73.142857-512 0 0 73.142857ZM306.322286 128l512 0 0-73.142857-512 0 0 73.142857Z"  horiz-adv-x="1098" />

    
    <glyph glyph-name="record" unicode="&#58960;" d="M766.120187 832.393333l0-378.636596c0-22.040992-17.86795-39.908942-39.908942-39.908942l-493.233588 0c-22.040992 0-39.908942 17.86795-39.908942 39.908942L193.068715 832.393333l-88.555895 0c-22.040992 0-39.908942-18.110473-39.908942-40.450271l0-815.18823c0-22.339798 17.86795-40.450271 39.908942-40.450271l154.047492 0L258.560312 283.144988c0 20.188808 17.86795 36.557614 39.908942 36.557614l493.233588 0c22.040992 0 39.908942-16.367783 39.908942-36.557614l0-346.841449 87.919399 0c22.040992 0 39.908942 18.110473 39.908942 40.450271L959.440124 705.92292 832.969711 832.393333 766.120187 832.393333zM191.276906 19.86467600000003c0-10.254551-7.952112-18.568914-17.760502-18.568914l-28.308743 0c-9.807367 0-17.759479 8.31334-17.759479 18.568914l0 26.819832c0 10.254551 7.952112 18.568914 17.759479 18.568914l28.308743 0c9.807367 0 17.760502-8.31334 17.760502-18.568914L191.276906 19.86467600000003zM767.73394 147.706319c0-10.172687-8.246825-18.419512-18.419512-18.419512L339.502809 129.28680799999995c-10.172687 0-18.419512 8.246825-18.419512 18.419512l0 26.091238c0 10.172687 8.246825 18.419512 18.419512 18.419512l409.81162 0c10.172687 0 18.419512-8.246825 18.419512-18.419512L767.73394 147.706319zM767.73394 19.288553999999976c0-10.172687-8.246825-18.419512-18.419512-18.419512L339.502809 0.8690430000000333c-10.172687 0-18.419512 8.246825-18.419512 18.419512l0 26.091238c0 10.172687 8.246825 18.419512 18.419512 18.419512l409.81162 0c10.172687 0 18.419512-8.246825 18.419512-18.419512L767.73394 19.288553999999976zM704.803679 530.4044180000001c0-10.172687-8.246825-18.419512-18.419512-18.419512l-92.090395 0c-10.172687 0-18.419512 8.246825-18.419512 18.419512L575.874261 749.891318c0 10.172687 8.246825 18.419512 18.419512 18.419512l92.090395 0c10.172687 0 18.419512-8.246825 18.419512-18.419512L704.803679 530.4044180000001z"  horiz-adv-x="1024" />

    
    <glyph glyph-name="send" unicode="&#58965;" d="M887.003348 573.594079L887.003348 573.594079 643.188366 821.989379c-6.235005 6.346545-15.108093 10.251481-23.982204 10.251481L218.837612 832.240861c-24.452925 0-47.467081-10.251481-63.773466-27.079752-16.543791-16.598027-26.592658-39.783075-26.592658-65.159022l0-709.575868c0-25.37697 10.048867-48.313356 26.592658-64.910359l0 0 0 0c16.778128-16.584724 39.321564-27.079752 63.773466-27.079752l587.629491 0c24.689309 0 46.738487 10.000771 63.051011 26.110681l0.940418 0.969071c16.331967 16.597003 26.617218 39.533388 26.617218 64.910359L897.075751 549.188226C897.076774 557.978427 893.731586 566.756347 887.003348 573.594079L887.003348 573.594079zM639.097188 728.539011L639.097188 728.539011l156.099221-158.849868L675.786809 569.6891430000001c-10.073426 0-19.419282 4.38589-26.126031 10.731412l-0.706081 1.461281c-5.76633 6.347568-9.857509 15.136745-9.857509 24.898063L639.097188 728.539011 639.097188 728.539011zM829.485353 30.425196000000028L829.485353 30.425196000000028c0-6.347568-2.164293-12.20395-6.729262-16.349363l0-0.249687c-4.308119-3.90289-10.072403-6.335289-16.287965-6.335289L218.837612 7.490857000000005c-5.981225 0-11.979846 2.432399-16.052604 6.588045l0 0c-4.093225 4.143367-6.727215 9.998725-6.727215 16.347317L196.057793 740.0010629999999c0 6.598278 2.636037 12.202926 6.727215 16.598027 4.072759 3.903913 10.070356 6.825452 16.052604 6.825452l379.75507 0L598.592682 606.779899c0-20.993127 8.142447-40.024575 21.579481-53.928237l0.966001-1.221828c14.379499-14.393825 33.558303-22.934339 54.647621-22.934339L829.485353 528.695496 829.485353 30.425196000000028 829.485353 30.425196000000028zM763.050268 287.98010899999997c0-19.780509-16.035208-35.815717-35.815717-35.815717L292.263925 252.16439300000002c-19.780509 0-35.815717 16.035208-35.815717 35.815717l0 0c0 19.780509 16.035208 35.815717 35.815717 35.815717l434.969603 0C747.01506 323.79582600000003 763.050268 307.760618 763.050268 287.98010899999997L763.050268 287.98010899999997zM763.050268 158.020222c0-19.780509-16.035208-35.815717-35.815717-35.815717L292.263925 122.20450500000004c-19.780509 0-35.815717 16.035208-35.815717 35.815717l0 0c0 19.780509 16.035208 35.815717 35.815717 35.815717l434.969603 0C747.01506 193.83593900000005 763.050268 177.80073100000004 763.050268 158.020222L763.050268 158.020222zM524.622994 625.7775790000001L363.21793 625.7775790000001l18.992563 32.896224c5.516644 9.552563 2.241041 21.7647-7.310499 27.279297l-27.219945 15.714913c-9.55154 5.514597-21.765723 2.242064-27.28032-7.310499l-61.248969-106.087177c-1.917676-3.320629-2.77009-6.964622-2.667759-10.535961-0.220011-3.761674 0.615007-7.626701 2.64013-11.134595l61.249993-106.087177c5.514597-9.550517 17.726733-12.82305 27.28032-7.308453l27.217898 15.71389c9.55154 5.514597 12.825097 17.72878 7.310499 27.28032l-19.639293 34.016745 162.081469 0c11.027148 0 19.96982 8.94165 19.96982 19.96982L544.593837 605.8077579999999C544.591791 616.837976 535.650141 625.7775790000001 524.622994 625.7775790000001z"  horiz-adv-x="1024" />

    
    <glyph glyph-name="icsubmit" unicode="&#59016;" d="M532.298813 29.728324000000043c0.173962-0.00307 0.346901-0.00614 0.520863-0.00921l-0.265036 0.265036L532.298813 29.728324000000043zM946.539302 628.979504l-87.589894 87.355557c-17.151635 17.104563-44.957935 17.104563-62.108546 0L395.748834 316.30420200000003 226.063177 485.541651c-17.149589 17.10354-44.957935 17.10354-62.107523 0l-86.924745-86.695524c-17.149589-17.10354-17.149589-44.839231 0-61.943794L363.718327 50.971137999999996c8.995885-8.971325 20.920472-13.229303 32.702819-12.792351 11.777231-0.432859 23.694655 3.825119 32.685423 12.792351l517.432733 516.064572C963.689914 584.141296 963.689914 611.873917 946.539302 628.979504z"  horiz-adv-x="1024" />

    
    <glyph glyph-name="advanced" unicode="&#58981;" d="M682.507372 495.060445c-6.304589 23.760147-14.045901 46.267766-22.691815 67.686588-80.645738-17.824971-106.931405 52.202942-73.087599 101.162004-12.589736 18.912745-30.946826 32.406061-56.166207 39.059598-33.843806-51.834552-126.175701-25.733081-117.8992 45.014216-26.466792 0-52.922327 0-79.023798 0 6.65763-75.797313-84.609003-91.816149-123.481336-45.014216-19.10001-12.589736-45.201481-17.990746-50.768267-44.811602 37.069267-44.460608 3.225461-113.954355-73.087599-95.411023-8.276501-21.419845-16.387225-43.926442-22.319331-67.686588 63.905472-10.082636 63.905472-108.000759 0-118.083395 5.933129-23.575952 14.042831-46.083571 22.319331-67.502393 80.645738 17.824971 107.650789-52.202942 73.087599-101.180424 12.773931-19.078521 30.949896-32.756031 56.516178-39.226397 33.843806 51.834552 126.009925 25.733081 117.733425-45.198411 26.101471 0 52.555983 0 79.023798 0-6.838755 76.148307 84.609003 92.000344 123.668601 45.198411 19.081591 12.589736 45.364187 18.359137 50.396807 44.995797-36.719296 44.645826-2.87549 113.77016 73.087599 95.411023 8.644891 21.419845 16.387225 43.926442 22.691815 67.502393C615.889115 393.364275 615.889115 478.857415 682.507372 495.060445zM373.23354 318.838931c-64.792679 0-117.177769 52.552913-117.177769 117.179816 0 64.811098 52.384068 117.179816 117.177769 117.179816 64.442708 0 117.198236-52.368718 117.198236-117.179816C490.432799 371.391844 437.676248 318.838931 373.23354 318.838931zM960.610274 200.01773200000002c-2.157129 12.958126-4.497431 25.38311-7.90811 37.087687-43.739177-4.313236-53.824883 34.562167-32.220842 58.138118-6.119371 10.986215-14.765285 19.262716-27.723412 24.313755-20.884656-25.216311-68.771293-6.119371-59.594283 31.134091-13.861706 1.806135-27.723412 3.243881-41.936111 4.866844-0.719384-40.331567-50.231031-43.392276-67.871807-15.85306-11.336186-5.750981-25.197892-7.188726-29.693276-20.866237 16.734126-25.935696-5.40408-60.497862-44.833091-46.083571-5.750981-10.80202-11.336186-22.156626-16.018835-34.212196 33.124422-9.364275 27.005051-61.567217-7.188726-62.820768 1.787716-13.143345 4.313236-25.197892 7.557116-36.903491 43.926442 4.313236 53.640688-34.562167 32.756031-58.323337 5.40101-10.80202 14.045901-19.078521 26.820855-24.12956 21.419845 25.197892 68.590168 5.7694 59.761082-31.668257 14.230096-1.27197 28.27702-2.89391 41.769312-4.681626 1.25355 40.682561 50.765197 43.558052 68.409043 16.553001 10.983145 5.585205 25.010627 6.65456 29.693276 20.516266-16.553001 25.935696 5.40101 60.497862 44.645826 46.267766 5.585205 10.80202 11.17041 22.138206 16.018835 34.028001C919.042553 150.34030900000005 924.078243 195.52030100000002 960.610274 200.01773200000002zM785.644357 125.86077799999998c-34.381042 3.963265-58.676377 35.097356-54.897308 69.475328 4.497431 34.028001 34.912138 58.691727 69.291133 54.544267 34.212196-3.963265 59.225893-34.727942 54.547337-69.291133C851.17177 146.37704399999996 820.019259 121.897513 785.644357 125.86077799999998z"  horiz-adv-x="1024" />

    
    <glyph glyph-name="visit" unicode="&#58983;" d="M901.975852-34.90676499999995L120.016421-34.90676499999995c-30.844495 0-55.850006 25.00858-55.850006 55.855122L64.166415 663.271518c0 30.844495 25.00551 55.853076 55.850006 55.853076l27.930119 0 0-27.927049c0-30.845519 25.00551-55.851029 55.853076-55.851029l27.926026 0c30.849612 0 55.855122 25.00551 55.855122 55.851029l0 27.927049 55.853076 0 0-27.927049c0-30.845519 25.00858-55.851029 55.855122-55.851029l27.927049 0c30.845519 0 55.854099 25.00551 55.854099 55.851029l0 27.927049 55.854099 0 0-27.927049c0-30.845519 25.007557-55.851029 55.855122-55.851029l27.926026 0c30.845519 0 55.854099 25.00551 55.854099 55.851029l0 27.927049 55.855122 0 0-27.927049c0-30.845519 25.00551-55.851029 55.853076-55.851029l27.927049 0c30.846542 0 55.854099 25.00551 55.854099 55.851029l0 27.927049 27.927049 0c30.846542 0 55.854099-25.00858 55.854099-55.853076l0-642.323161C957.829951-9.898185000000012 932.823418-34.90676499999995 901.975852-34.90676499999995zM734.414579 467.782172L287.579741 467.782172c-15.424294 0-27.927049-12.501732-27.927049-27.926026 0-15.425318 12.502755-27.927049 27.927049-27.927049l446.834838 0c15.421224 0 27.926026 12.501732 27.926026 27.927049C762.340605 455.28044 749.836827 467.782172 734.414579 467.782172zM734.414579 328.14487799999995L287.579741 328.14487799999995c-15.424294 0-27.927049-12.502755-27.927049-27.92398 0-15.425318 12.502755-27.928073 27.927049-27.928073l446.834838 0c15.421224 0 27.926026 12.502755 27.926026 27.928073C762.340605 315.64212299999997 749.836827 328.14487799999995 734.414579 328.14487799999995zM734.414579 188.5127L287.579741 188.5127c-15.424294 0-27.927049-12.504802-27.927049-27.928073 0-15.424294 12.502755-27.927049 27.927049-27.927049l446.834838 0c15.421224 0 27.926026 12.502755 27.926026 27.927049C762.340605 176.00789899999995 749.836827 188.5127 734.414579 188.5127zM804.231691 663.271518c-23.134907 0-41.891086 18.754133-41.891086 41.891086l0 55.854099c0 23.13593 18.756179 41.891086 41.891086 41.891086 23.13593 0 41.891086-18.754133 41.891086-41.891086l0-55.854099C846.121753 682.026674 827.367621 663.271518 804.231691 663.271518zM608.741321 663.271518c-23.13593 0-41.893132 18.754133-41.893132 41.891086l0 55.854099c0 23.13593 18.757203 41.891086 41.893132 41.891086 23.13593 0 41.891086-18.754133 41.891086-41.891086l0-55.854099C650.632407 682.026674 631.878275 663.271518 608.741321 663.271518zM413.250952 663.271518c-23.13593 0-41.888016 18.754133-41.888016 41.891086l0 55.854099c0 23.13593 18.752086 41.891086 41.888016 41.891086 23.137976 0 41.891086-18.754133 41.891086-41.891086l0-55.854099C455.141014 682.026674 436.387905 663.271518 413.250952 663.271518zM217.762629 663.271518c-23.134907 0-41.889039 18.754133-41.889039 41.891086l0 55.854099c0 23.13593 18.754133 41.891086 41.889039 41.891086 23.13593 0 41.891086-18.754133 41.891086-41.891086l0-55.854099C259.652691 682.026674 240.898559 663.271518 217.762629 663.271518z"  horiz-adv-x="1024" />

    
    <glyph glyph-name="bglist" unicode="&#59010;" d="M932.064 67.29600000000005C925.408 73.952 916.64 77.60000000000002 907.328 77.60000000000002L99.04 77.60000000000002C79.712 77.60000000000002 64 61.888000000000034 64 42.559999999999945 64 23.23199999999997 79.712 7.519999999999982 99.04 7.519999999999982L907.328 7.519999999999982C926.656 7.519999999999982 942.368 23.23199999999997 942.368 42.559999999999945 942.368 51.87199999999996 938.72 60.639999999999986 932.064 67.29600000000005ZM907.328 427.424L99.04 427.424C79.712 427.424 64 411.712 64 392.384 64 373.05600000000004 79.712 357.34400000000005 99.04 357.34400000000005L907.328 357.34400000000005C926.656 357.34400000000005 942.368 373.05600000000004 942.368 392.384 942.368 401.696 938.72 410.464 932.064 417.12 925.408 423.776 916.64 427.424 907.328 427.424ZM932.064 757.664C925.408 764.3199999999999 916.64 768 907.328 768L99.04 768C79.712 768 64 752.256 64 732.928 64 713.6320000000001 79.712 697.888 99.04 697.888L907.328 697.888C926.656 697.888 942.368 713.6320000000001 942.368 732.928 942.368 742.24 938.72 751.04 932.064 757.664Z"  horiz-adv-x="1024" />

    
    <glyph glyph-name="file" unicode="&#58982;" d="M777.70478516 575.4046875L253.63583984 575.4046875c-10.33154297 0-18.69609375-8.64404297-18.69609375-19.25683594 0-10.61279297 8.36455078-19.20410156 18.69609375-19.20410156l524.06806641 0c10.3359375 0 18.69433594 8.64580078 18.69433594 19.20410156C796.39912109 566.70351562 788.04072266 575.4046875 777.70478516 575.4046875L777.70478516 575.4046875zM796.39912109 672.82001953L234.93974609 672.82001953c-10.38603516 0-18.75585938-8.59130859-18.75585937-19.20146484 0-10.61279297 8.36894531-19.14257813 18.75585937-19.14257813l561.459375 0c10.39306641 0 18.76025391 8.52978516 18.76025391 19.19970703C815.159375 664.22871094 806.7921875 672.82001953 796.39912109 672.82001953L796.39912109 672.82001953zM954.95732422 438.9984375l-73.828125 309.45146484c-0.16699219 0.67236328-0.33398438 1.23046875-0.61083984 1.90898438-11.62792969 30.37236328-28.58642578 50.58544922-73.67431641 50.58544922l-583.58583985-1.62597656c-37.39042969 0-59.34375-15.10136719-73.48974609-50.30419922-0.28125-0.79277344-0.56513672-1.57763672-0.73212891-2.30273438L75.81816406 431.41787109c-5.66630859-5.55908203-9.31816406-12.57451172-9.31816406-20.71582031l0-408.10166016c0-21.11572266 24.64892578-41.54589844 45.19951172-41.54589843l823.55273437 0c20.54882813 0 29.59716797 20.43017578 29.59716797 41.54589843L964.84941406 410.70205078C964.84941406 422.99794922 961.64580078 432.87949219 954.95732422 438.9984375L954.95732422 438.9984375zM740.26337891 127.22050780999996L291.08427734 127.22050780999996l0 141.59179688 449.17910157 0L740.26337891 127.22050780999996 740.26337891 127.22050780999996zM684.11445313 412.13730469c0 0-39.70019531-0.50800781-59.29541016-0.50800782L415.89951172 411.62929688c-19.59521484 0-68.66630859 0.50800781-68.6663086 0.50800781L105.90576172 412.13730469l78.95214844 323.39707031c7.63769531 18.69873047 14.87988281 25.32304687 38.4609375 25.32304687l583.64033203 1.68310547c25.9453125 0 31.16601563-6.62255859 38.40820312-25.26855468l80.07714844-325.13554688L684.11445313 412.13642578 684.11445313 412.13730469z"  horiz-adv-x="1028" />

    
    <glyph glyph-name="icmerge" unicode="&#59017;" d="M767 714c-7.5 1.875-13.125 1.875-20.625 1.875l0 0c7.5 0 15 0 20.625-1.875zM791.375 706.5c-1.875 0-1.875 1.875-3.75 1.875 1.875 0 3.75-1.875 3.75-1.875zM834.5 670.875c-1.875 1.875-3.75 5.625-5.625 7.5 1.875-3.75 3.75-5.625 5.625-7.5zM872 102.75c-3.75 0-5.625 0-9.375 0l-16.875 0 0 526.875c0 7.5 0 13.125-1.875 20.625 1.875-5.625 1.875-13.125 1.875-20.625l0-526.875 16.875 0c3.75 0 5.625 0 9.375 0zM888.875 108.375c-1.875-1.875-5.625-1.875-7.5-3.75 1.875 1.875 5.625 1.875 7.5 3.75zM932 809.625c-18.75 15-43.125 22.5-67.5 22.5l-586.875 0c-26.25 0-50.625-7.5-67.5-22.5-18.75-16.875-30-39.375-30-61.875l0-30-18.75 0c-26.25 0-50.625-7.5-67.5-22.5-20.625-18.75-31.875-41.25-31.875-65.625l0-609.375c0-24.375 11.25-46.875 30-61.875s43.125-22.5 67.5-22.5l585 0c26.25 0 50.625 7.5 67.5 22.5 18.75 16.875 31.875 39.375 31.875 61.875l0 30 16.875 0c26.25 0 50.625 7.5 67.5 22.5 18.75 16.875 30 39.375 30 61.875l0 611.25c3.75 24.375-7.5 46.875-26.25 63.75zM795.125 22.125c0-18.75-22.5-33.75-48.75-33.75l-585 0c-26.25 0-48.75 15-48.75 33.75l0 607.5c0 18.75 22.5 33.75 48.75 33.75l585 0c26.25 0 48.75-15 48.75-33.75l0-607.5zM911.375 138.375c0-7.5-3.75-15-9.375-20.625 0 0 0 0-1.875-1.875-1.875-1.875-3.75-3.75-5.625-3.75 0 0-1.875 0-1.875-1.875s-1.875 0-1.875-1.875c0 0-1.875 0-1.875-1.875 0 0 0 0-1.875 0-1.875-1.875-5.625-1.875-7.5-3.75 0 0-1.875 0-1.875 0 0 0 0 0-1.875 0-1.875 0-3.75 0-5.625-1.875-3.75 0-5.625 0-9.375 0l-16.875 0 0 528.75c0 7.5 0 13.125-1.875 20.625 0 1.875 0 1.875-1.875 3.75 0 1.875 0 1.875-1.875 3.75 0 1.875 0 1.875-1.875 3.75 0 1.875-1.875 1.875-1.875 3.75-1.875 1.875-1.875 3.75-3.75 5.625-1.875 1.875-3.75 5.625-5.625 7.5-1.875 3.75-5.625 5.625-7.5 9.375-1.875 1.875-3.75 3.75-7.5 5.625-1.875 1.875-1.875 1.875-3.75 3.75 0 0 0 0-1.875 1.875l0 0c-1.875 0-1.875 1.875-3.75 1.875-3.75 1.875-9.375 5.625-13.125 7.5-1.875 0-1.875 1.875-3.75 1.875-1.875 0-3.75 1.875-5.625 1.875 0 0-1.875 0-1.875 0-3.75 0-5.625 1.875-9.375 1.875 0 0-1.875 0-1.875 0-1.875 0-1.875 0-3.75 0-7.5 1.875-13.125 1.875-20.625 1.875l-511.875 0 0 30c0 3.75 0 7.5 1.875 11.25s3.75 5.625 7.5 9.375c9.375 9.375 22.5 15 39.375 15l585 0c26.25 0 48.75-15 48.75-33.75l0-609.375zM193.25 610.875l376.875 0 0-50.625-376.875 0 0 50.625zM652.625 584.625c0 15 11.25 26.25 26.25 28.125 15 0 26.25-11.25 28.125-26.25 0 0 0-1.875 0-1.875 0-15-11.25-26.25-26.25-28.125-15 0-26.25 11.25-28.125 26.25 0 0 0 1.875 0 1.875zM112.625 515.25l682.5 0 0-50.625-682.5 0 0 50.625z"  horiz-adv-x="1024" />

    
    <glyph glyph-name="iccount" unicode="&#59019;" d="M99.5 758.8153125l0 0 0-749.62875c0-20.8265625 16.8628125-37.685625 37.685625-37.685625l749.62875 0c20.8265625 0 37.685625 16.8628125 37.685625 37.685625l0 749.62875c0 20.8265625-16.8628125 37.685625-37.685625 37.685625l-749.62875 0c-20.8265625 0-37.685625-16.8628125-37.685625-37.685625l0 0zM305.75 204.26625001000002l-66.1996875 66.19968749c-7.17375001 7.17375001-19.2853125 7.4128125-26.6071875 0.0909375-7.1090625-7.108125-7.2815625-19.2346875 0.0909375-26.6071875l66.19968751-66.1996875-66.19968751-66.1996875c-7.17375001-7.17375001-7.4128125-19.2853125-0.0909375-26.6071875 7.108125-7.1090625 19.2346875-7.2815625 26.6071875 0.0909375l66.1996875 66.19968751 66.1996875-66.19968751c7.17375001-7.17375001 19.2853125-7.4128125 26.6071875-0.0909375 7.108125 7.108125 7.2815625 19.2346875-0.0909375 26.6071875l-66.19968751 66.1996875 66.19968751 66.1996875c7.17375001 7.17375001 7.4128125 19.2853125 0.0909375 26.6071875-7.108125 7.108125-19.2346875 7.2815625-26.6071875-0.0909375l-66.1996875-66.19968751zM287 609l-93.6215625 0c-10.1446875 0-18.8784375-8.394375-18.8784375-18.75 0-10.051875 8.4525-18.75 18.8784375-18.75l93.6215625 0 0-93.6215625c0-10.1446875 8.394375-18.8784375 18.75-18.8784375 10.0528125 0 18.75 8.4525 18.75 18.8784375l0 93.6215625 93.6215625 0c10.1446875 0 18.8784375 8.394375 18.8784375 18.75 0 10.051875-8.4525 18.75-18.8784375 18.75l-93.6215625 0 0 93.6215625c0 10.1446875-8.394375 18.8784375-18.75 18.8784375-10.051875 0-18.75-8.4525-18.75-18.8784375l0-93.6215625zM62 758.8153125c0 41.52375001 33.6384375 75.1846875 75.1846875 75.1846875l749.62875 0c41.52375001 0 75.1846875-33.6384375 75.1846875-75.1846875l0-749.62875c0-41.52375001-33.6384375-75.1846875-75.1846875-75.1846875l-749.62875 0c-41.52375001 0-75.1846875 33.6384375-75.1846875 75.1846875l0 749.62875zM549.5 590.25c0 10.355625 8.73375001 18.75 18.8784375 18.75l224.743125 0c10.426875 0 18.8784375-8.698125 18.8784375-18.75 0-10.355625-8.73375001-18.75-18.8784375-18.75l-224.743125 0c-10.426875 0-18.8784375 8.698125-18.8784375 18.75zM549.5 252.75c0 10.355625 8.73375001 18.75 18.8784375 18.75l224.743125 0c10.426875 0 18.8784375-8.698125 18.8784375-18.75 0-10.355625-8.73375001-18.75-18.8784375-18.75l-224.743125 0c-10.426875 0-18.8784375 8.698125-18.8784375 18.75zM549.5 102.75c0 10.355625 8.73375001 18.75 18.8784375 18.75l224.743125 0c10.426875 0 18.8784375-8.698125 18.8784375-18.75 0-10.355625-8.73375001-18.75-18.8784375-18.75l-224.743125 0c-10.426875 0-18.8784375 8.698125-18.8784375 18.75z"  horiz-adv-x="1024" />

    
    <glyph glyph-name="encounter" unicode="&#59054;" d="M684.21992187-18.124218749999955c14.61621094 4.65820313 28.69628906 10.22607422 42.22265625 16.60693359-6.18310547 2.12255859-12.22998047 4.63183594-18.09667968 7.5234375L684.21992187-18.124218749999955zM919.61738281 206.42753905999996c2.64111328 6.08642578 5.14160156 12.20800781 7.51464844 18.3647461l-10.92041016-10.92041016C917.41572266 211.41972655999996 918.53544922 208.93681641 919.61738281 206.42753905999996zM607.38154297 637.87207031l-95.44921875 0 0-288.22763672 91.42382812-92.0258789 63.83935547 63.84814453-59.81396484 60.20068359L607.38154297 637.87207031zM575.56513672 798c-334.07402344 0-381.80039063-320.25761719-381.80039063-320.25761719L66.5 477.74238281l190.89755859-192.15703125 190.90195313 192.15703125L289.21660156 477.74238281c0 0 55.67871094 224.17998047 286.34941407 224.17998047 225.35947266 0 287.31796875-224.17998047 286.3555664-320.25498047-0.29443359-29.77294922-7.83544922-62.29248047-20.92236328-94.8383789 1.44140625-0.65917969 2.86523438-1.33154297 4.28466797-2.03027344l38.90478516 38.90478516 56.8696289-56.86962891c10.77978516 38.53564453 16.3125 77.53271484 16.3125 114.83349609C957.36992187 539.1366210900001 851.32636719 798 575.56513672 798zM631.26582031 70.78154297000003c-18.43066406-6.05566406-37.11621094-9.37353516-55.70068359-9.37353516-108.03251953 4.0078125-190.89755859 96.08203125-190.8975586 96.08203125l-95.45097656-96.08203125c0 0 112.69511719-96.06884766 286.34941406-96.06884765 30.15527344 0 58.70214844 3.52880859 85.56591797 10.05908203l-62.61767578 62.63085937L631.26582031 70.78154297000003zM963.71123047 110.36308594000002l0 70.08398437-51.14355469 0c-3.3046875 12.85839844-8.40673828 24.99609375-15.00292969 36.1538086l36.18017579 36.17578125-49.55712891 49.56152343-36.18017578-36.18017578c-11.15332031 6.59179688-23.29101563 11.69384766-36.15820313 14.99853516l0 51.14355469-70.07958984 0 0-51.14355469c-12.85839844-3.3046875-25.00488281-8.40673828-36.15820313-14.99853516l-36.18017578 36.18017578-49.54833984-49.56152343 36.17138672-36.17578125c-6.58740234-11.15332031-11.68945313-23.29541016-14.99414063-36.1538086l-51.14355468 0 0-70.08398437 51.14355468 0c3.3046875-12.86279297 8.40673828-25.00048828 14.99414063-36.1538086l-36.17138672-36.18017578 49.5571289-49.5571289 36.17138672 36.18017578c11.15332031-6.59619141 23.29980469-11.69824219 36.15820313-15.00292969l0-51.14355469 70.07958984 0 0 51.14355469c12.8671875 3.3046875 25.00488281 8.40673828 36.15820313 15.00292969l36.18017578-36.18017578 49.55712891 49.5571289-36.18017579 36.18017578c6.59619141 11.15332031 11.69824219 23.29101563 15.00292969 36.1538086L963.71123047 110.36308594000002zM776.81708984 51.95976562999999c-51.61816406 0-93.45410156 41.83154297-93.45410156 93.44091796 0 51.61376953 41.8359375 93.44970703 93.45410156 93.44970704 51.60498047 0 93.44091797-41.83154297 93.44091797-93.44970704C870.25800781 93.80009766 828.42207031 51.95976562999999 776.81708984 51.95976562999999z"  horiz-adv-x="1027" />

    
    <glyph glyph-name="wiki" unicode="&#58994;" d="M512.00175781 834.00087891C263.48662109 834.00087891 62 632.4826171899999 62 383.99912109c0-248.53095703 201.48662109-449.99648437 450.00175781-449.99648437 248.50371094 0 449.99560547 201.46552734 449.99560547 449.99648437C961.99736328 632.4826171899999 760.50634766 834.00087891 512.00175781 834.00087891L512.00175781 834.00087891zM523.01621094 674.98740234c40.42617188 0 73.13203125-32.77441406 73.13203125-73.1118164 0-40.43056641-32.70673828-73.16191406-73.13203125-73.16191406-40.33564453 0-73.13378906 32.73134766-73.13378907 73.16191406C449.87714844 642.21298828 482.68056641 674.98740234 523.01621094 674.98740234L523.01621094 674.98740234zM653.02841797 122.81279297000003L408.134375 122.81279297000003l0 32.08798828 30.66679687 11.32998047c17.16679688 6.30791016 28.59345703 22.72324219 28.59345704 40.96142578l0 172.98808594c0 18.27070313-11.42314453 34.65351562-28.59345704 40.93417968l-30.66679687 11.35546875 0 32.7788086 185.60742188 0-1e-8-258.05917969c0-18.23466797 11.42490234-34.65351562 28.62509766-40.95703125l30.66240234-11.334375 0-32.08447265L653.02841797 122.81367188000002z"  horiz-adv-x="1024" />

    
    <glyph glyph-name="port" unicode="&#59018;" d="M742.37714844 215.08476561999998l-18.14941407 18.14941407 227.12607422 227.12607422c16.43554688 16.43291016 13.51757813 46.01513672-6.53027343 66.06298828L654.42060547 816.82177734c-20.05224609 20.04785156-49.62744141 22.97021484-66.06298828 6.53466797L361.23154297 596.23476562l-18.14941406 18.14941407c-20.05224609 20.04960937-50.04228516 22.55712891-66.99199219 5.60917969L107.29882812 451.2046875c-11.39941406-11.39941406-13.98339844-28.70068359-8.36015624-44.90771484l-0.12128907 0.12568359 39.11308594-233.13779297-60.89501953-60.89501953c-20.04785156-20.05224609-20.04785156-52.55419922 0-72.60205078l90.75146484-90.74707031c20.04785156-20.05224609 52.5515625-20.05224609 72.59941406 0l60.89501954 60.890625 233.13779297-39.11132813-0.13183594 0.13183594c16.20703125-5.63378906 33.51269531-3.04541016 44.91210937 8.35839844l168.78955078 168.78427734C764.93867187 165.04863280999996 762.425 195.03691405999996 742.37714844 215.08476561999998zM654.46455078 575.19550781c-7.02685547-7.02861328-18.42626953-7.02861328-25.45751953 0l-50.91064453 50.91240235c-7.02685547 7.03125-7.02685547 18.42626953 0 25.45488281l38.18408203 38.18144531c7.03125 7.03125 18.421875 7.03125 25.45751953 0l50.91064453-50.91064453c7.03125-7.02861328 7.03125-18.42363281 0-25.45488281L654.46455078 575.19550781zM779.55927734 450.10341797c-7.02685547-7.02861328-18.42626953-7.02861328-25.45751953 0l-50.91503906 50.91064453c-7.02246094 7.03125-7.02246094 18.42626953 0 25.45751953l38.18847656 38.18144531c7.03125 7.02861328 18.42626953 7.02861328 25.45751953 0l50.91064454-50.91064453c7.02685547-7.02861328 7.03125-18.42626953 0-25.45488281L779.55927734 450.10341797z"  horiz-adv-x="1025" />

    
    <glyph glyph-name="check" unicode="&#58962;" d="M764.76321678 820.62810909L259.19370467 820.62810909c-101.51605021 0-183.8223963-82.30518101-183.8223963-183.84218909L75.37130837 131.21524394999994c0-101.52536405 82.3063461-183.84218909 183.8223963-183.84218909l505.56951211 0c101.54864981 0 183.86547485 82.31682503 183.86547485 183.84218909L948.62869163 636.78592C948.62752654 738.32292807 866.31070265 820.62810909 764.76321678 820.62810909zM413.97392498 204.17230051l-1.20038855 1.20038856-1.19922347-1.20038856L252.79939584 362.9367387l42.10090894 42.11022393 117.87555954-117.87439559 296.51218546 296.49006365 42.07878713-42.10090895L413.97392498 204.17230051z"  horiz-adv-x="1024" />

    
    </font>
</defs>
</svg>
